<svg width="1520" height="280" viewBox="0 0 1520 280" fill="none" xmlns="http://www.w3.org/2000/svg">
<g clip-path="url(#clip0)">
<rect width="1519.2" height="280" fill="white"/>
<rect width="2987.55" height="277.374" transform="translate(-742.361 -2.13989)" fill="url(#paint0_linear)"/>
<ellipse cx="757.639" cy="101.36" rx="26" ry="24.5" fill="#E78E68"/>
<ellipse cx="1488.5" cy="110" rx="64.5" ry="63" fill="#EFC483"/>
<ellipse cx="1376.68" cy="201.019" rx="22.0308" ry="20.7598" fill="#E78E68"/>
<path d="M620.433 31.2165C620.433 68.8914 589.891 99.433 552.217 99.433C514.542 99.433 484 68.8914 484 31.2165C484 -6.45843 514.542 -37 552.217 -37C589.891 -37 620.433 -6.45843 620.433 31.2165Z" fill="#EFC483"/>
<g opacity="0.95">
<g filter="url(#filter0_d)">
<path d="M963.278 206.28C927.156 195.244 762.977 201.358 733.303 206.28L705.748 299.79L995.072 312.094C1072.79 296.782 1222.72 266.159 1200.67 266.159C1178.63 266.159 1113.77 266.159 1077.74 253.855C1031.11 233.349 1003.55 218.584 963.278 206.28Z" fill="#8ADED5"/>
</g>
<g filter="url(#filter1_d)">
<path d="M-555.444 246.886C-630.839 281.186 -666.114 287.328 -701.203 273.736L-493.092 364.259L4.5741 309.146C4.5741 309.146 -105.822 168.193 -213.296 202.391C-236.007 209.618 -283.874 236.146 -372.863 246.886C-390.673 249.035 -499.576 221.468 -555.444 246.886Z" fill="#85E0DB"/>
</g>
<g filter="url(#filter2_d)">
<path d="M1111.23 256.235C1054.97 284.697 927.346 268.094 889.38 256.235L1111.23 367.151L1541.94 259.16C1536.33 249.045 1399.25 229.241 1384.58 222.751C1370.78 216.646 1284.55 199.657 1238 209.148C1219.18 212.985 1167.48 227.773 1111.23 256.235Z" fill="#8ADEC9"/>
</g>
<g filter="url(#filter3_d)">
<path d="M-357.137 195.263C-414.58 205.726 -510.318 248.628 -558.187 260.138L-543.331 286.298L216.302 310.364L591.662 343.849L702.586 310.364L720.413 183.752C688.72 191.775 628.355 166.473 601.416 174.007C564.772 185.517 477.766 212.005 424.285 196.309C381.5 183.752 246.994 227.707 185.622 223.515C25.2178 212.558 -32.2484 175.541 -96.6889 196.309C-96.6889 196.309 -124.777 205.379 -171.46 212.304C-198.781 216.357 -226.305 210.431 -252.951 203.16C-291.259 192.707 -330.18 190.352 -357.137 195.263Z" fill="#A4FFEF"/>
</g>
<g filter="url(#filter4_d)">
<path d="M-587.103 286.735C-679.804 240.694 -758.442 254.995 -780.231 268.947L-804 391.373L-739.624 415.44L-587.103 378.817L-240.465 415.44L90.3268 391.373L241.857 327.544C183.094 303.477 67.2315 255.344 23.9704 255.344C-17.6262 255.344 -80.7126 245.825 -154.992 304.422C-229.272 363.019 -511.833 311.848 -587.103 286.735Z" fill="#98EFEA"/>
</g>
<g filter="url(#filter5_dd)">
<path d="M351.162 367.701C284.234 394.812 50.2793 378.998 -58.332 367.701L197.218 224.33C228.081 207.014 265.014 204.205 298.141 216.652L347.956 235.37C382.479 248.342 419.058 254.988 455.939 254.988H496.761C539.927 254.988 582.722 262.95 623 278.475L669.716 296.481L685.802 314.448L662.132 312.083C636.371 309.509 610.407 312.303 585.058 317.563C514.974 332.103 406.533 345.272 351.162 367.701Z" fill="#8EDCC5"/>
</g>
<g filter="url(#filter6_d)">
<path d="M1223.53 186.892C1166.09 197.355 1023.65 257.623 975.784 269.133L1037.34 277.927L1796.97 301.994L2172.33 335.478L2283.26 301.994L2301.08 175.381C2276.7 181.554 2229.56 193.593 2196.84 202.247C2180.58 206.551 2163.73 208.351 2146.92 207.622C1906.1 197.185 1842.51 233.844 1838.06 233.844C1822.21 243.262 1745.92 242.35 1712.25 220.376C1679.77 199.181 1642.14 195.004 1561.72 207.429C1555.73 208.354 1549.95 210.342 1544.37 212.695C1491.12 235.144 1442.5 216.393 1418.43 208.866C1294.63 170.15 1258.2 180.577 1223.53 186.892Z" fill="#63BAC6"/>
</g>
<g filter="url(#filter7_d)">
<path d="M1723.72 320.088C1640.1 355.627 1338.57 357.587 1202.86 342.779L1798.62 214.04C1844.62 204.101 1892.67 212.261 1932.81 236.827L2048.26 307.49L1944.18 321.418C1868.53 346.098 1807.35 284.548 1723.72 320.088Z" fill="#8FDEC9"/>
</g>
<g filter="url(#filter8_d)">
<path d="M903.672 402.617C928.505 403.912 992.061 384.252 1055.96 360.135L2149.55 379.425L2268.4 305.132L2254.09 297.449C2185.94 260.847 2108.44 245.34 2031.46 252.899L1883.14 267.463H1679.94C1672.85 267.463 1665.78 266.818 1658.8 265.537L1539.56 243.631C1526.37 241.207 1513.01 240.409 1499.63 241.326C1428.03 246.233 1245.83 260.206 1219.57 284.205C1203.87 298.554 1129.68 332.31 1055.96 360.135L1022.48 359.544L903.672 402.617Z" fill="#C3F2F2"/>
</g>
<g filter="url(#filter9_d)">
<path d="M1848 390.665C1764.37 426.204 1462.85 428.165 1327.14 413.357L1922.9 284.617C1968.89 274.678 2016.95 282.839 2057.09 307.405L2172.54 378.068L2068.46 391.996C1992.81 416.676 1931.63 355.126 1848 390.665Z" fill="#49A1B2"/>
</g>
</g>
<path d="M761.143 17.7006C758.981 22.1522 755.954 32.2765 761.143 37.1605C764.577 39.4499 763.814 17.7006 761.143 17.7006Z" fill="#52322F"/>
<path d="M702.763 26.8585L705.816 31.8188C706.452 31.1829 707.724 29.5293 707.724 28.0031C707.724 26.0952 708.105 19.9902 706.579 17.7008C705.053 15.4114 704.29 16.5561 701.237 17.7008C698.795 18.6166 701.237 24.1875 702.763 26.8585Z" fill="white" fill-opacity="0.2"/>
<path d="M905.757 174.143C938.114 192.153 958.923 181.648 965.282 174.143L917.586 97.8298L806.168 65.0149L775.643 136.75L788.998 174.143H858.443C869.636 171.6 894.768 168.038 905.757 174.143Z" fill="#331F1D"/>
<path d="M627.594 175.669C595.237 193.68 574.429 183.174 568.07 175.669L615.766 99.3559L727.183 66.541L757.709 138.276L744.354 175.669H674.909C663.716 173.126 638.583 169.564 627.594 175.669Z" fill="#331F1D"/>
<path d="M746.534 156.721V116.908H787.938V156.721V168.588H800.599C810.066 164.632 843.372 156.721 848.847 156.721C854.322 156.721 864.93 156.721 864.93 183.517V234.431H662.699V183.517C662.699 168.45 667.964 161.895 674.54 159.021C684.353 154.732 695.637 158.268 705.904 161.312L730.451 168.588H746.534V156.721Z" fill="#F9D4A9"/>
<path d="M746.643 136.75L750.078 131.408L788.616 135.223C787.217 140.311 787.09 147.306 784.037 149.341C781.748 150.868 770.682 156.21 765.34 156.591C761.067 156.896 749.314 152.012 746.643 148.578V136.75Z" fill="#CFA676"/>
<path d="M729.886 113.313C727.376 99.32 726.347 88.3857 726.146 84.6677C724.361 75.4572 722.445 55.5659 729.061 49.6847C767.72 17.6801 789.394 47.0542 800.168 55.6098C808.787 62.4543 805.405 80.2773 804.098 91.1632L799.534 119.117L793.79 132.152L786.311 139.952L778.928 145.846C775.633 148.635 770.892 151.303 763.592 150.694C756.291 150.086 751.808 145.066 748.201 141.642C742.583 136.308 732.395 127.306 729.886 113.313Z" fill="#F9D4A9"/>
<path d="M728.248 103.172L726.039 93.3934L753.363 42.1207L764.589 45.8147C764.826 45.4696 764.959 45.4807 764.959 45.9364L764.589 45.8147C762.641 48.6478 753.657 75.4909 753.363 77.3927C753.032 79.5261 736.373 95.6157 728.248 103.172Z" fill="#D3AD80"/>
<path d="M802.352 103.191L803.947 93.2937L773.48 43.8241L757.041 45.877C756.708 45.4985 756.536 45.4878 756.564 45.9364L757.041 45.877C759.81 49.0327 773.716 77.7587 775.679 79.0275C777.492 80.1992 793.772 96.1559 802.352 103.191Z" fill="#D3AD80"/>
<path d="M729.855 91.8539C749.391 84.2225 759.108 59.6749 761.525 48.3551C763.941 37.0352 775.261 29.5819 761.525 14.0139C747.788 -1.55409 719.934 15.6674 707.724 26.2241C696.531 36.3992 669.185 55.0707 649.344 48.3551C624.542 39.9606 579.635 87.5432 574.556 97.5774C569.214 108.132 560.438 139.55 567.306 149.471C565.017 157.736 547.719 161.935 534.492 159.773C538.689 162.698 549.754 169.923 560.438 175.417C586.385 189.535 626.831 163.589 626.831 149.471C624.542 126.577 659.646 113.556 674.146 105.972C696.277 94.3956 714.973 98.3405 729.855 91.8539Z" fill="#563226"/>
<path d="M794.15 91.8537C774.614 84.2224 764.896 59.6748 762.48 48.355C760.063 37.0351 750.841 21.9879 762.48 14.0138C783.274 -0.233277 804.071 15.6673 816.281 26.224C827.473 36.3991 854.819 55.0706 874.661 48.355C899.463 39.9605 945.04 90.4639 949.448 97.5773C953.856 104.691 963.566 139.55 956.698 149.471C956.698 159.773 976.285 161.935 989.513 159.773C985.315 162.698 974.25 169.923 963.566 175.417C937.619 189.535 897.173 163.589 897.173 149.471C899.463 126.576 866.838 111.547 849.859 105.972C824.294 97.5773 809.031 98.3404 794.15 91.8537Z" fill="#563226"/>
<path d="M662.864 210.812V203.609L695.062 193.441C699.158 193.724 704.892 196.153 695.062 203.609C685.233 211.066 669.501 211.518 662.864 210.812Z" fill="#CFA676"/>
<path d="M835.931 206.004V196.274L864.93 200.166V210.286C863.362 212.154 844.944 208.21 835.931 206.004Z" fill="#CFA676"/>
<path d="M768.775 196.274L663.462 172.998L661.554 206.195L695.132 199.327V234.049H834.786L836.312 213.063V199.327L865.311 203.524L864.167 172.998L768.775 196.274Z" fill="#23705D"/>
<path d="M735.733 22.8037C735.733 15.8803 723.311 18.7651 717.1 21.0729L686.356 44.0063L697.536 56.1222C702.97 67.0842 718.218 86.5849 735.733 76.8922C753.248 67.1996 753.9 54.6798 752.036 49.6315C746.602 43.5737 735.733 29.727 735.733 22.8037Z" fill="#52322F"/>
<path d="M698.784 16.2261C695.409 21.1295 697.748 26.3418 706.233 36.0232C705.608 36.7328 702.685 32.8974 701.266 31.6471C699.847 30.3967 695.058 26.1769 690.897 26.6073C686.737 27.0378 684.967 30.8348 682.914 32.8071C680.861 34.7794 678.406 43.6448 679.263 46.6057C680.121 49.5666 683.584 51.3577 686.118 51.7C688.652 52.0423 700.217 52.1489 700.791 53.2851C701.366 54.4213 695.452 53.6226 692.825 54.4586C690.198 55.2947 685.446 59.6152 683.79 62.5674C682.134 65.5197 686.172 68.447 687.32 70.7195C688.469 72.9919 687.531 74.0562 689.014 76.3076C690.496 78.559 694.584 79.6406 698.411 79.2312C702.238 78.8218 703.484 72.0428 704.046 70.3323C704.608 68.6217 709.352 66.8143 711.54 64.331C713.728 61.8476 716.613 57.1426 717.01 58.1226C717.407 59.1025 714.75 62.118 714.657 63.2964C714.564 64.4748 712.836 68.9391 710.918 70.4004C709.001 71.8616 704.552 78.3405 705.076 81.3224C705.599 84.3044 710.963 89.6605 715.187 90.2311C719.411 90.8016 720.83 92.0519 725.053 92.6225C729.277 93.193 733.256 87.2464 735.246 84.273C737.235 81.2997 736.311 71.9779 733.942 68.9451C731.573 65.9123 728.777 64.0789 729.871 62.8373C730.965 61.5956 742.614 63.0368 747.741 59.3626C752.869 55.6884 754.437 46.0416 754.467 43.8621C754.497 41.6827 754.683 39.3259 753.94 35.5202C753.197 31.7146 748.179 29.1842 742.714 27.5196C737.248 25.855 734.279 29.2253 731.673 30.3951C729.066 31.5648 726.617 32.5572 725.168 33.4863C723.719 34.4154 722.823 36.1471 721.729 37.3887C720.635 38.6304 717.987 39.1328 718.57 37.7559C719.153 36.3791 721.037 31.7374 722.047 29.161C723.057 26.5846 723.083 19.0453 722.183 15.417C721.284 11.7888 718.864 10.6017 716.203 8.25735C713.542 5.91298 712.292 7.33204 710.134 7.63598C707.975 7.93991 702.159 11.3226 698.784 16.2261Z" fill="#EF3D3D"/>
<path d="M696.208 60.2573C697.522 58.7829 710.089 52.1219 714.987 50.7541C715.096 51.2715 711.231 52.6548 707.476 54.5554C706.246 55.1778 704.034 56.3417 698.422 59.9853C696.314 61.3538 693.154 68.4847 693.154 68.4847C693.154 68.4847 694.567 62.1001 696.208 60.2573Z" fill="#F3C9C9"/>
<path d="M715.021 21.283C715.339 23.2319 712.596 37.1878 710.573 41.8539C710.103 41.6125 711.463 37.7397 712.352 33.6255C712.644 32.2781 713.133 29.8274 713.838 23.1736C714.103 20.6745 710.554 13.7285 710.554 13.7285C710.554 13.7285 714.624 18.8469 715.021 21.283Z" fill="#F3C9C9"/>
<path d="M735.847 40.1541C733.935 40.6462 722.256 48.7648 718.797 52.4923C719.207 52.826 722.207 50.0247 725.617 47.557C726.733 46.7489 728.781 45.3163 734.591 41.9972C736.773 40.7505 744.559 41.2086 744.559 41.2086C744.559 41.2086 738.237 39.5389 735.847 40.1541Z" fill="#F3C9C9"/>
<path d="M735.022 42.4168C733.048 42.3655 719.59 46.9692 715.241 49.6046C715.544 50.0379 719.197 48.167 723.153 46.7295C724.449 46.2587 726.811 45.4427 733.308 43.8447C735.749 43.2445 743.11 45.8209 743.11 45.8209C743.11 45.8209 737.489 42.4809 735.022 42.4168Z" fill="#F3C9C9"/>
<path d="M724.455 71.6076C724.877 69.6786 722.891 55.5952 721.122 50.8269C720.639 51.0427 721.788 54.9831 722.455 59.1392C722.673 60.5003 723.03 62.9739 723.375 69.6559C723.505 72.1657 719.588 78.9105 719.588 78.9105C719.588 78.9105 723.927 74.0187 724.455 71.6076Z" fill="#F3C9C9"/>
<path d="M735.022 42.4168C733.048 42.3655 719.59 46.9692 715.241 49.6046C715.544 50.0379 719.197 48.167 723.153 46.7295C724.449 46.2587 726.811 45.4427 733.308 43.8447C735.749 43.2445 743.11 45.8209 743.11 45.8209C743.11 45.8209 737.489 42.4809 735.022 42.4168Z" fill="#F3C9C9"/>
<path d="M692.926 36.3441C694.896 36.471 707.884 42.2688 711.978 45.2856C711.638 45.6899 708.168 43.4973 704.357 41.709C703.109 41.1233 700.83 40.0978 694.503 37.9206C692.127 37.1029 684.563 39.0052 684.563 39.0052C684.563 39.0052 690.463 36.1856 692.926 36.3441Z" fill="#F3C9C9"/>
<path d="M710.807 31.5464C709.526 32.8171 710.421 34.1929 710.241 35.7591C710.155 36.5018 707 41.0302 706.486 40.0273C706.181 39.4323 704.883 38.7103 704.556 38.6418C703.758 38.4746 702.856 39.2446 702.501 38.932C702.146 38.6194 701.215 38.3325 700.387 38.9897C699.973 39.3183 701.033 41.2095 700.387 41.5854C699.74 41.9612 698.875 41.5134 697.937 42.5777C696.999 43.642 697.666 43.5998 698.355 43.8913C699.043 44.1828 700.348 46.2779 701.1 47.5704C701.852 48.8629 702.008 48.6855 702.739 49.6444C703.469 50.6032 705.315 50.6541 706.515 51.0808C707.714 51.5074 707.934 52.3311 707.663 53.3532C707.393 54.3753 706.861 53.9064 705.881 54.3034C704.901 54.7003 704.162 56.2546 703.224 57.3189C702.286 58.3832 703.642 58.6325 704.643 58.5692C705.644 58.506 706.29 58.1301 706.979 58.4216C707.667 58.7131 707.929 60.2041 709.014 61.4755C710.1 62.7469 711.215 61.8389 711.84 61.1294C712.465 60.4199 712.537 58.9078 712.985 58.042C713.432 57.1761 714.902 56.5807 717.154 55.0984C719.405 53.616 719.511 55.2844 720.064 56.087C720.617 56.8895 720.19 58.089 720.097 59.2674C720.004 60.4458 719.4 61.489 719.109 62.1775C718.817 62.8659 718.12 65.0875 719.007 65.869C719.894 66.6504 720.57 64.0952 721.351 63.2082C722.133 62.3213 722.395 63.8123 723.772 64.3953C725.148 64.9783 726.441 64.2266 727.045 63.1834C727.649 62.1401 727.294 61.8276 727.252 61.1602C727.21 60.4929 726.792 59.1793 726.082 58.5541C725.373 57.9289 725.111 56.4379 725.58 55.9058C726.049 55.3736 727.405 55.6229 728.427 55.8933C729.449 56.1637 730.251 55.6105 731.054 55.0573C731.857 54.504 732.043 52.1472 731.823 51.3236C731.603 50.4999 729.935 50.6054 729.226 49.9802C728.516 49.355 728.985 48.8229 729.965 48.4259C730.945 48.029 731.414 47.4968 731.57 47.3195C731.726 47.1421 731.287 45.4948 730.932 45.1822C730.578 44.8696 730.181 43.8897 730.316 43.3786C730.451 42.8676 729.898 42.065 729.209 41.7735C728.521 41.482 728.365 41.6594 727.718 42.0353C727.072 42.4111 727.406 42.3901 726.603 42.9433C725.801 43.4965 725.29 43.3613 724.8 43.5598C724.31 43.7583 724.153 43.9357 723.33 44.1552C722.506 44.3748 721.818 44.0833 721.307 43.9481C720.795 43.8129 719.71 42.5415 719.043 42.5837C718.375 42.6259 718.504 43.3482 718.17 43.3693C717.836 43.3904 717.594 43.5128 716.217 42.9298C714.84 42.3468 714.422 41.0332 714.224 40.5432C714.025 40.0533 714.857 37.3206 715.128 36.2985C715.398 35.2764 714.157 34.1823 713.249 33.0672C712.341 31.952 711.045 31.311 710.807 31.5464Z" fill="#FF8686"/>
<path d="M711.699 38.7868C711.884 37.8298 710.766 39.4822 710.257 40.2012C709.628 40.4299 709.283 40.947 708.7 41.3014C707.972 41.7443 707.596 40.2959 707 41.0305C706.386 41.7876 705.315 41.288 704.358 41.1026C703.198 40.8778 703.844 41.6455 704.302 42.9022C704.773 44.1976 705.216 45.4157 706.388 45.701C707.559 45.9863 710.893 49.2142 710.321 50.2757C709.817 51.213 707.99 54.0128 709.675 53.7553C710.72 53.5955 714.436 53.7594 715.678 52.7736C716.92 51.7878 718.673 51.6942 719.377 52.6726C722.344 56.7938 722.301 55.2085 722.786 53.6087C723.203 52.2325 723.955 46.0673 722.898 46.0962C720.386 46.1648 718.104 44.7748 716.733 44.918C715.362 45.0612 713.419 43.6335 712.876 43.1195C712.333 42.6055 711.508 39.7715 711.699 38.7868Z" fill="#9F2F2F"/>
<mask id="mask0" mask-type="alpha" maskUnits="userSpaceOnUse" x="691" y="26" width="48" height="47">
<path d="M710.807 31.5468C709.526 32.8175 710.421 34.1933 710.241 35.7595C710.155 36.5022 707 41.0306 706.486 40.0277C706.181 39.4327 704.883 38.7107 704.556 38.6421C703.758 38.475 702.856 39.2449 702.501 38.9323C702.146 38.6198 701.215 38.3329 700.387 38.9901C699.973 39.3187 701.033 41.2099 700.387 41.5857C699.74 41.9616 698.875 41.5138 697.937 42.5781C696.999 43.6424 697.666 43.6002 698.355 43.8917C699.043 44.1832 700.348 46.2783 701.1 47.5708C701.852 48.8633 702.008 48.6859 702.739 49.6448C703.469 50.6036 705.315 50.6544 706.515 51.0811C707.714 51.5078 707.934 52.3315 707.663 53.3536C707.393 54.3757 706.861 53.9068 705.881 54.3038C704.901 54.7007 704.162 56.255 703.224 57.3193C702.286 58.3836 703.642 58.6329 704.643 58.5696C705.644 58.5063 706.29 58.1305 706.979 58.422C707.667 58.7135 707.929 60.2045 709.014 61.4759C710.1 62.7473 711.215 61.8393 711.84 61.1298C712.465 60.4202 712.537 58.9081 712.985 58.0423C713.432 57.1765 714.902 56.5811 717.154 55.0987C719.405 53.6164 719.511 55.2848 720.064 56.0873C720.617 56.8899 720.19 58.0894 720.097 59.2678C720.004 60.4462 719.4 61.4894 719.109 62.1778C718.817 62.8663 718.12 65.0879 719.007 65.8693C719.894 66.6508 720.57 64.0955 721.351 63.2086C722.133 62.3217 722.395 63.8127 723.772 64.3957C725.148 64.9786 726.441 64.2269 727.045 63.1837C727.649 62.1405 727.294 61.8279 727.252 61.1606C727.21 60.4932 726.792 59.1796 726.082 58.5545C725.373 57.9293 725.111 56.4383 725.58 55.9061C726.049 55.374 727.405 55.6233 728.427 55.8937C729.449 56.1641 730.251 55.6109 731.054 55.0576C731.857 54.5044 732.043 52.1476 731.823 51.3239C731.603 50.5003 729.935 50.6057 729.226 49.9806C728.516 49.3554 728.985 48.8233 729.965 48.4263C730.945 48.0294 731.414 47.4972 731.57 47.3198C731.726 47.1424 731.287 45.4952 730.932 45.1826C730.578 44.87 730.181 43.8901 730.316 43.379C730.451 42.8679 729.898 42.0654 729.209 41.7739C728.521 41.4824 728.365 41.6598 727.718 42.0357C727.072 42.4115 727.406 42.3904 726.603 42.9437C725.801 43.4969 725.29 43.3617 724.8 43.5602C724.31 43.7587 724.153 43.936 723.33 44.1556C722.506 44.3752 721.818 44.0837 721.307 43.9485C720.795 43.8133 719.71 42.5419 719.043 42.584C718.375 42.6262 718.504 43.3486 718.17 43.3697C717.836 43.3908 717.594 43.5131 716.217 42.9301C714.84 42.3472 714.422 41.0336 714.224 40.5436C714.025 40.0536 714.857 37.3209 715.128 36.2988C715.398 35.2767 714.157 34.1827 713.249 33.0675C712.341 31.9524 711.045 31.3114 710.807 31.5468Z" fill="#F58383"/>
</mask>
<g mask="url(#mask0)">
<path d="M724.455 71.6072C724.877 69.6783 722.891 55.5949 721.122 50.8266C720.639 51.0423 721.788 54.9827 722.455 59.1388C722.673 60.5 723.03 62.9735 723.375 69.6556C723.505 72.1653 719.588 78.9101 719.588 78.9101C719.588 78.9101 723.927 74.0184 724.455 71.6072Z" fill="#DC6464"/>
</g>
<mask id="mask1" mask-type="alpha" maskUnits="userSpaceOnUse" x="691" y="26" width="48" height="47">
<path d="M710.807 31.5468C709.526 32.8175 710.421 34.1933 710.241 35.7595C710.155 36.5022 707 41.0306 706.486 40.0277C706.181 39.4327 704.883 38.7107 704.556 38.6421C703.758 38.475 702.856 39.2449 702.501 38.9323C702.146 38.6198 701.215 38.3329 700.387 38.9901C699.973 39.3187 701.033 41.2099 700.387 41.5857C699.74 41.9616 698.875 41.5138 697.937 42.5781C696.999 43.6424 697.666 43.6002 698.355 43.8917C699.043 44.1832 700.348 46.2783 701.1 47.5708C701.852 48.8633 702.008 48.6859 702.739 49.6448C703.469 50.6036 705.315 50.6544 706.515 51.0811C707.714 51.5078 707.934 52.3315 707.663 53.3536C707.393 54.3757 706.861 53.9068 705.881 54.3038C704.901 54.7007 704.162 56.255 703.224 57.3193C702.286 58.3836 703.642 58.6329 704.643 58.5696C705.644 58.5063 706.29 58.1305 706.979 58.422C707.667 58.7135 707.929 60.2045 709.014 61.4759C710.1 62.7473 711.215 61.8393 711.84 61.1298C712.465 60.4202 712.537 58.9081 712.985 58.0423C713.432 57.1765 714.902 56.5811 717.154 55.0987C719.405 53.6164 719.511 55.2848 720.064 56.0873C720.617 56.8899 720.19 58.0894 720.097 59.2678C720.004 60.4462 719.4 61.4894 719.109 62.1778C718.817 62.8663 718.12 65.0879 719.007 65.8693C719.894 66.6508 720.57 64.0955 721.351 63.2086C722.133 62.3217 722.395 63.8127 723.772 64.3957C725.148 64.9786 726.441 64.2269 727.045 63.1837C727.649 62.1405 727.294 61.8279 727.252 61.1606C727.21 60.4932 726.792 59.1796 726.082 58.5545C725.373 57.9293 725.111 56.4383 725.58 55.9061C726.049 55.374 727.405 55.6233 728.427 55.8937C729.449 56.1641 730.251 55.6109 731.054 55.0576C731.857 54.5044 732.043 52.1476 731.823 51.3239C731.603 50.5003 729.935 50.6057 729.226 49.9806C728.516 49.3554 728.985 48.8233 729.965 48.4263C730.945 48.0294 731.414 47.4972 731.57 47.3198C731.726 47.1424 731.287 45.4952 730.932 45.1826C730.578 44.87 730.181 43.8901 730.316 43.379C730.451 42.8679 729.898 42.0654 729.209 41.7739C728.521 41.4824 728.365 41.6598 727.718 42.0357C727.072 42.4115 727.406 42.3904 726.603 42.9437C725.801 43.4969 725.29 43.3617 724.8 43.5602C724.31 43.7587 724.153 43.936 723.33 44.1556C722.506 44.3752 721.818 44.0837 721.307 43.9485C720.795 43.8133 719.71 42.5419 719.043 42.584C718.375 42.6262 718.504 43.3486 718.17 43.3697C717.836 43.3908 717.594 43.5131 716.217 42.9301C714.84 42.3472 714.422 41.0336 714.224 40.5436C714.025 40.0536 714.857 37.3209 715.128 36.2988C715.398 35.2767 714.157 34.1827 713.249 33.0675C712.341 31.9524 711.045 31.3114 710.807 31.5468Z" fill="#DC6464"/>
</mask>
<g mask="url(#mask1)">
<path d="M692.926 36.3441C694.896 36.471 707.884 42.2688 711.978 45.2856C711.638 45.6899 708.168 43.4973 704.357 41.709C703.109 41.1233 700.83 40.0978 694.503 37.9206C692.127 37.1029 684.563 39.0052 684.563 39.0052C684.563 39.0052 690.463 36.1856 692.926 36.3441Z" fill="#DC6464"/>
</g>
<mask id="mask2" mask-type="alpha" maskUnits="userSpaceOnUse" x="691" y="26" width="48" height="47">
<path d="M710.807 31.5468C709.526 32.8175 710.421 34.1933 710.241 35.7595C710.155 36.5022 707 41.0306 706.486 40.0277C706.181 39.4327 704.883 38.7107 704.556 38.6421C703.758 38.475 702.856 39.2449 702.501 38.9323C702.146 38.6198 701.215 38.3329 700.387 38.9901C699.973 39.3187 701.033 41.2099 700.387 41.5857C699.74 41.9616 698.875 41.5138 697.937 42.5781C696.999 43.6424 697.666 43.6002 698.355 43.8917C699.043 44.1832 700.348 46.2783 701.1 47.5708C701.852 48.8633 702.008 48.6859 702.739 49.6448C703.469 50.6036 705.315 50.6544 706.515 51.0811C707.714 51.5078 707.934 52.3315 707.663 53.3536C707.393 54.3757 706.861 53.9068 705.881 54.3038C704.901 54.7007 704.162 56.255 703.224 57.3193C702.286 58.3836 703.642 58.6329 704.643 58.5696C705.644 58.5063 706.29 58.1305 706.979 58.422C707.667 58.7135 707.929 60.2045 709.014 61.4759C710.1 62.7473 711.215 61.8393 711.84 61.1298C712.465 60.4202 712.537 58.9081 712.985 58.0423C713.432 57.1765 714.902 56.5811 717.154 55.0987C719.405 53.6164 719.511 55.2848 720.064 56.0873C720.617 56.8899 720.19 58.0894 720.097 59.2678C720.004 60.4462 719.4 61.4894 719.109 62.1778C718.817 62.8663 718.12 65.0879 719.007 65.8693C719.894 66.6508 720.57 64.0955 721.351 63.2086C722.133 62.3217 722.395 63.8127 723.772 64.3957C725.148 64.9786 726.441 64.2269 727.045 63.1837C727.649 62.1405 727.294 61.8279 727.252 61.1606C727.21 60.4932 726.792 59.1796 726.082 58.5545C725.373 57.9293 725.111 56.4383 725.58 55.9061C726.049 55.374 727.405 55.6233 728.427 55.8937C729.449 56.1641 730.251 55.6109 731.054 55.0576C731.857 54.5044 732.043 52.1476 731.823 51.3239C731.603 50.5003 729.935 50.6057 729.226 49.9806C728.516 49.3554 728.985 48.8233 729.965 48.4263C730.945 48.0294 731.414 47.4972 731.57 47.3198C731.726 47.1424 731.287 45.4952 730.932 45.1826C730.578 44.87 730.181 43.8901 730.316 43.379C730.451 42.8679 729.898 42.0654 729.209 41.7739C728.521 41.4824 728.365 41.6598 727.718 42.0357C727.072 42.4115 727.406 42.3904 726.603 42.9437C725.801 43.4969 725.29 43.3617 724.8 43.5602C724.31 43.7587 724.153 43.936 723.33 44.1556C722.506 44.3752 721.818 44.0837 721.307 43.9485C720.795 43.8133 719.71 42.5419 719.043 42.584C718.375 42.6262 718.504 43.3486 718.17 43.3697C717.836 43.3908 717.594 43.5131 716.217 42.9301C714.84 42.3472 714.422 41.0336 714.224 40.5436C714.025 40.0536 714.857 37.3209 715.128 36.2988C715.398 35.2767 714.157 34.1827 713.249 33.0675C712.341 31.9524 711.045 31.3114 710.807 31.5468Z" fill="#F58383"/>
</mask>
<g mask="url(#mask2)">
<path d="M696.209 60.2574C697.522 58.7831 710.089 52.122 714.987 50.7543C715.096 51.2716 711.231 52.6549 707.476 54.5555C706.246 55.178 704.034 56.3418 698.422 59.9854C696.314 61.3539 693.155 68.4849 693.155 68.4849C693.155 68.4849 694.567 62.1003 696.209 60.2574Z" fill="#D88181"/>
</g>
<mask id="mask3" mask-type="alpha" maskUnits="userSpaceOnUse" x="715" y="37" width="29" height="21">
<path d="M735.022 42.4168C733.048 42.3655 719.591 46.9692 715.241 49.6046C715.544 50.0379 719.197 48.167 723.153 46.7295C724.449 46.2587 726.811 45.4427 733.308 43.8447C735.749 43.2445 743.111 45.8209 743.111 45.8209C743.111 45.8209 737.489 42.4809 735.022 42.4168Z" fill="#AE2A2A"/>
</mask>
<g mask="url(#mask3)">
<path d="M710.808 31.5464C709.526 32.8171 710.421 34.1929 710.241 35.7591C710.156 36.5018 707.001 41.0302 706.486 40.0273C706.181 39.4323 704.883 38.7103 704.556 38.6418C703.758 38.4746 702.856 39.2446 702.501 38.932C702.146 38.6194 701.215 38.3325 700.387 38.9897C699.973 39.3183 701.033 41.2095 700.387 41.5854C699.741 41.9612 698.875 41.5134 697.937 42.5777C696.999 43.642 697.667 43.5998 698.355 43.8913C699.043 44.1828 700.348 46.2779 701.1 47.5704C701.852 48.8629 702.008 48.6855 702.739 49.6444C703.469 50.6032 705.315 50.6541 706.515 51.0808C707.714 51.5075 707.934 52.3311 707.663 53.3532C707.393 54.3753 706.861 53.9064 705.881 54.3034C704.901 54.7003 704.162 56.2546 703.224 57.3189C702.286 58.3832 703.642 58.6325 704.643 58.5692C705.644 58.506 706.29 58.1301 706.979 58.4216C707.667 58.7131 707.929 60.2041 709.014 61.4755C710.1 62.7469 711.215 61.8389 711.84 61.1294C712.465 60.4199 712.537 58.9078 712.985 58.042C713.433 57.1761 714.903 56.5807 717.154 55.0984C719.405 53.616 719.511 55.2844 720.064 56.087C720.617 56.8895 720.19 58.089 720.097 59.2674C720.004 60.4458 719.4 61.489 719.109 62.1775C718.817 62.8659 718.12 65.0875 719.007 65.869C719.894 66.6504 720.57 64.0952 721.352 63.2082C722.133 62.3213 722.395 63.8123 723.772 64.3953C725.149 64.9783 726.441 64.2266 727.045 63.1834C727.649 62.1401 727.294 61.8276 727.252 61.1602C727.21 60.4929 726.792 59.1793 726.083 58.5541C725.373 57.9289 725.111 56.4379 725.58 55.9058C726.049 55.3736 727.405 55.6229 728.427 55.8933C729.449 56.1637 730.252 55.6105 731.054 55.0573C731.857 54.504 732.043 52.1472 731.823 51.3236C731.604 50.4999 729.935 50.6054 729.226 49.9802C728.516 49.355 728.985 48.8229 729.965 48.426C730.945 48.029 731.414 47.4968 731.57 47.3195C731.726 47.1421 731.287 45.4948 730.932 45.1822C730.578 44.8696 730.181 43.8897 730.316 43.3786C730.451 42.8676 729.898 42.065 729.209 41.7735C728.521 41.4821 728.365 41.6594 727.718 42.0353C727.072 42.4111 727.406 42.3901 726.603 42.9433C725.801 43.4965 725.29 43.3613 724.8 43.5598C724.31 43.7583 724.153 43.9357 723.33 44.1552C722.506 44.3748 721.818 44.0833 721.307 43.9481C720.796 43.8129 719.71 42.5415 719.043 42.5837C718.376 42.6259 718.504 43.3482 718.17 43.3693C717.836 43.3904 717.594 43.5128 716.217 42.9298C714.84 42.3468 714.422 41.0332 714.224 40.5432C714.025 40.0533 714.858 37.3206 715.128 36.2985C715.398 35.2764 714.157 34.1823 713.249 33.0672C712.341 31.952 711.045 31.311 710.808 31.5464Z" fill="#DC6464"/>
</g>
<path d="M698.439 45.2263C700.7 44.9494 710.895 47.0632 715.71 48.1547C716.065 48.4673 716.658 49.3678 716.191 50.4693C715.608 51.8462 714.7 50.7311 713.678 50.4607C712.656 50.1903 704.344 48.5381 700.454 47.9465C696.564 47.3549 690.82 49.2255 689.485 49.3099C688.417 49.3774 686.323 50.5148 685.409 51.0751C684.672 51.7916 683.075 53.3666 682.574 53.9343C682.074 54.5019 682.166 56.3051 682.274 57.1358L681.054 56.3755C681.13 55.8123 681.376 54.5796 681.751 54.1538C682.22 53.6217 682.49 52.5996 681.666 52.8191C681.008 52.9948 680.142 54.3114 679.791 54.9477L678.57 54.1874C678.779 53.9509 679.485 53.292 680.644 52.5487C681.803 51.8055 681.189 51.4534 680.737 51.3703L676.775 52.2908L676.493 50.4661C677.153 50.3127 678.643 50.0287 679.318 50.12C680.163 50.2341 682.165 50.1076 684.438 48.9589C686.71 47.8102 695.614 45.5724 698.439 45.2263Z" fill="#FCF7F7"/>
<mask id="mask4" mask-type="alpha" maskUnits="userSpaceOnUse" x="675" y="30" width="42" height="42">
<path d="M698.238 45.5339C700.498 45.257 710.693 47.3708 715.508 48.4623C715.863 48.7749 716.456 49.6754 715.99 50.7769C715.407 52.1538 714.499 51.0387 713.476 50.7683C712.454 50.4979 704.142 48.8458 700.252 48.2541C696.362 47.6625 690.618 49.5331 689.283 49.6175C688.215 49.685 686.121 50.8224 685.207 51.3827C684.471 52.0992 682.873 53.6743 682.373 54.2419C681.873 54.8095 681.964 56.6128 682.073 57.4434L680.852 56.6831C680.928 56.1199 681.174 54.8872 681.549 54.4615C682.018 53.9293 682.288 52.9072 681.465 53.1268C680.806 53.3024 679.94 54.619 679.589 55.2554L678.369 54.495C678.577 54.2585 679.284 53.5996 680.443 52.8564C681.602 52.1131 680.988 51.7611 680.536 51.6779L676.574 52.5984L676.291 50.7737C676.951 50.6203 678.441 50.3363 679.117 50.4276C679.961 50.5417 681.963 50.4152 684.236 49.2665C686.508 48.1178 695.412 45.88 698.238 45.5339Z" fill="#FCF7F7"/>
</mask>
<g mask="url(#mask4)">
<path d="M707.944 48.3931C711.986 49.2346 714.904 50.2478 716.157 50.9187L716.115 53.2467L707.046 54.2348C698.943 54.4561 682.669 54.7103 682.394 53.9562C682.051 53.0137 684.276 51.2201 685.578 50.4847C687.349 49.4844 690.641 48.0945 694.589 47.3829C699.431 46.5103 703.552 47.4789 707.944 48.3931Z" fill="#F7E9E9"/>
</g>
<circle cx="677.153" cy="54.3759" r="3.5" transform="rotate(41.3832 677.153 54.3759)" fill="#F58383"/>
<mask id="mask5" mask-type="alpha" maskUnits="userSpaceOnUse" x="672" y="49" width="11" height="11">
<circle cx="677.153" cy="54.3759" r="3.5" transform="rotate(41.3832 677.153 54.3759)" fill="#F58383"/>
</mask>
<g mask="url(#mask5)">
<path d="M674.983 53.7512C677.696 52.4078 676.991 51.1226 677.295 49.3515L678.396 50.908C678.41 51.4364 677.805 53.2933 677.725 53.4647C677.645 53.6361 676.464 55.0504 675.883 55.7361C675.05 54.9128 673.797 54.3386 674.983 53.7512Z" fill="#D76B6B"/>
</g>
<circle cx="677.153" cy="54.3759" r="3.5" transform="rotate(41.3832 677.153 54.3759)" fill="#F58383"/>
<mask id="mask6" mask-type="alpha" maskUnits="userSpaceOnUse" x="672" y="49" width="11" height="11">
<circle cx="677.153" cy="54.3759" r="3.5" transform="rotate(41.3832 677.153 54.3759)" fill="#F58383"/>
</mask>
<g mask="url(#mask6)">
<path d="M674.983 53.7512C677.696 52.4078 676.991 51.1226 677.295 49.3515L678.396 50.908C678.41 51.4364 677.805 53.2933 677.725 53.4647C677.645 53.6361 676.464 55.0504 675.883 55.7361C675.05 54.9128 673.797 54.3386 674.983 53.7512Z" fill="#D76B6B"/>
</g>
<circle cx="678.461" cy="54.5099" r="1.6549" transform="rotate(41.3832 678.461 54.5099)" fill="#F58383"/>
<mask id="mask7" mask-type="alpha" maskUnits="userSpaceOnUse" x="674" y="52" width="11" height="11">
<circle cx="679.569" cy="57.5534" r="3.5" transform="rotate(41.3832 679.569 57.5534)" fill="#F58383"/>
</mask>
<g mask="url(#mask7)">
<path d="M677.468 56.9604C680.242 55.6456 679.499 54.3426 679.788 52.5643L680.942 54.1457C680.964 54.6777 680.367 56.5382 680.287 56.7096C680.207 56.881 679.01 58.2882 678.422 58.9703C677.553 58.1303 676.255 57.5354 677.468 56.9604Z" fill="#D76B6B"/>
</g>
<circle cx="681.918" cy="57.1649" r="1.6549" transform="rotate(41.3832 681.918 57.1649)" fill="#F58383"/>
<mask id="mask8" mask-type="alpha" maskUnits="userSpaceOnUse" x="678" y="55" width="10" height="11">
<circle cx="683.027" cy="60.2099" r="3.5" transform="rotate(41.3832 683.027 60.2099)" fill="#F58383"/>
</mask>
<g mask="url(#mask8)">
<path d="M680.857 59.5837C683.57 58.2404 682.865 56.9552 683.169 55.1841L684.269 56.7405C684.284 57.269 683.679 59.1258 683.599 59.2972C683.519 59.4687 682.338 60.8829 681.757 61.5687C680.924 60.7453 679.67 60.1711 680.857 59.5837Z" fill="#D76B6B"/>
</g>
<path d="M716.67 184.968L733.67 188.643L823.011 183.697C815.808 185.391 814.114 214.625 793.958 206.195C773.018 260.805 736.087 212.3 721.46 198.182L716.67 184.968Z" fill="#1F3511"/>
<path d="M716.118 180.061C717.011 168.688 726.167 167.74 730.634 168.688C732.867 167.622 737.78 166.129 739.566 168.688C743.735 177.502 773.064 173.545 787.208 170.465C789.565 171.176 796.661 171.816 806.19 168.688C815.718 165.561 820.829 174.967 822.194 180.061L816.239 181.838L739.566 187.88C731.75 186.814 716.118 183.757 716.118 180.061Z" fill="#CFA676"/>
<path d="M762.15 176.123C752.92 178.98 735.457 190.877 739.448 215.611C741.719 223.107 766.801 178.146 762.15 176.123Z" fill="#51921E"/>
<path d="M743.358 156.865C735.108 160.911 718.791 175.472 719.522 201.344C720.656 209.069 747.136 158.508 743.358 156.865Z" fill="#51921E"/>
<path d="M765.519 177.588C767.979 185.679 768.431 205.794 750.553 221.522C744.639 225.602 762.037 176.074 765.519 177.588Z" fill="#51921E"/>
<path d="M745.155 161.92C749.202 171.733 751.544 195.249 728.546 210.805C720.842 214.642 740.284 159.615 745.155 161.92Z" fill="#51921E"/>
<path d="M741.699 159.703C734.171 159.419 718.995 163.606 718.508 182.627C719.179 188.663 744.993 162.365 741.699 159.703Z" fill="#487E1E"/>
<path d="M757.135 172.405C750.584 175.036 737.905 185.066 739.591 204.141C740.84 209.875 760.282 173.774 757.135 172.405Z" fill="#487E1E"/>
<path d="M741.015 166.986C743.36 173.046 744.576 187.871 730.674 198.695C726.028 201.449 738.115 165.725 741.015 166.986Z" fill="#487E1E"/>
<path d="M757.207 182.837C760.917 190.231 763.816 207.639 745.735 218.121C739.621 220.621 753.141 180.934 757.207 182.837Z" fill="#487E1E"/>
<path d="M788.908 164.758C788.94 173.436 794.542 191.349 816.689 193.583C823.678 193.339 791.846 161.184 788.908 164.758Z" fill="#51921E"/>
<path d="M767.576 176.645C768.879 184.745 777.053 202.276 799.321 207.605C806.209 208.401 769.963 173.741 767.576 176.645Z" fill="#51921E"/>
<path d="M791.036 162.17C798.582 161.897 815.865 166.142 824.627 185.299C826.568 191.377 788.837 164.845 791.036 162.17Z" fill="#51921E"/>
<path d="M772.358 176.248C781.787 174.995 802.465 178.381 809.747 201.947C811.013 209.524 769.122 179.949 772.358 176.248Z" fill="#51921E"/>
<path d="M769.566 178.74C767.362 185.214 766.98 199.364 783.085 204.171C788.41 204.98 772.696 176.492 769.566 178.74Z" fill="#487E1E"/>
<path d="M784.428 168.259C784.966 174.556 790.221 187.883 806.938 190.816C812.157 191.052 786.416 165.84 784.428 168.259Z" fill="#487E1E"/>
<path d="M775.603 181.013C781.385 180.372 794.353 182.734 799.967 197.306C801.106 201.977 773.771 183.242 775.603 181.013Z" fill="#487E1E"/>
<path d="M793.348 170.6C800.625 169.082 816.236 170.576 820.469 188.7C821.009 194.588 790.666 173.694 793.348 170.6Z" fill="#487E1E"/>
<path d="M763.093 180.848C770.708 187.827 781.996 207.109 766.222 228.402C760.409 234.361 757.592 180.572 763.093 180.848Z" fill="#51921E"/>
<path d="M790.648 171.584C796.737 179.22 805.629 200.462 792.483 224.34C787.666 231.043 786.179 171.36 790.648 171.584Z" fill="#51921E"/>
<path d="M759.109 180.648C752.824 187.075 742.717 205.694 752.568 228.756C756.366 235.334 763.226 180.854 759.109 180.648Z" fill="#51921E"/>
<path d="M786.468 175.478C777.812 182.777 764.229 203.699 779.149 228.989C784.807 236.174 792.32 175.592 786.468 175.478Z" fill="#51921E"/>
<path d="M790.9 175.014C798.367 178.26 811.133 189.259 802.465 207.291C798.912 212.629 786.413 175.97 790.9 175.014Z" fill="#487E1E"/>
<path d="M769.764 179.706C774.878 185.224 782.404 200.528 771.596 217.598C767.623 222.384 766.041 179.519 769.764 179.706Z" fill="#487E1E"/>
<path d="M788.066 182.152C782.869 186.731 774.561 200.042 782.897 216.659C786.097 221.404 791.496 182.324 788.066 182.152Z" fill="#487E1E"/>
<path d="M764.68 189.437C757.514 194.629 746.324 209.574 758.894 227.819C763.647 233.012 769.553 189.553 764.68 189.437Z" fill="#487E1E"/>
<g filter="url(#filter10_d)">
<path d="M52.7795 215.472C36.9176 215.472 -85.1192 252.547 -108.639 258.326L232.4 312.069L771.704 257.17C778.267 216.718 701.05 229.529 672.608 232.419L671.227 232.559C643.211 235.411 614.063 238.379 573.704 220.186C532.682 201.694 455.56 221.919 435.87 230.01C400.317 244.617 327.572 250.813 303.505 258.326C279.439 265.838 232.4 243.434 190.284 230.01C133.277 215.048 73.0171 215.472 52.7795 215.472Z" fill="#63BAC6"/>
</g>
<g filter="url(#filter11_d)">
<path d="M795.472 229.47C779.61 229.47 714.975 257.786 524.324 269.548L976.13 311.529L1552.99 325.626C1559.56 285.175 1488.23 247.384 1459.79 250.273C1431.34 253.163 1364.21 226.275 1319.97 218.014C1270.4 208.757 1199.29 221.379 1179.6 229.47C1144.05 244.077 1071.3 250.273 1047.24 257.786C1023.17 265.298 955.893 237.56 934.014 229.47C889.711 208.666 815.71 229.47 795.472 229.47Z" fill="#9ED1D8"/>
</g>
<g filter="url(#filter12_d)">
<path d="M842.48 274.039C834.959 279.405 778.819 295.495 767.51 294.803L780.643 334.947L817.307 318.336C993.513 324.103 1331.04 325.949 1271.5 287.19C1211.97 248.43 1161.69 271.04 1144 287.19C1132.87 293.188 1105.15 301.586 1083.26 287.19C1070.01 205.304 956.302 237.356 956.302 237.356C944.005 237.356 863.821 258.812 842.48 274.039Z" fill="#63BAC6"/>
</g>
<path d="M798.771 204.974C798.438 204.033 798.771 205.304 798.438 203.41L777.692 203.41C776.074 203.406 772.385 208.912 770.743 211.665L767.78 239.488L762.694 249.253L759.79 257.519C759.967 259.024 760.758 261.734 762.504 260.535C764.251 259.336 767.457 252.024 768.842 248.518C770.094 246.265 773.236 241.459 775.791 240.263C778.347 239.067 780.155 246.794 780.739 250.808L779.698 260.583L777.195 265.089C776.334 266.842 774.952 270.95 776.314 273.361C777.676 275.772 780.82 275.38 782.222 274.882L793.006 259.116L793.567 253.852L794.688 243.325C795.068 246.084 795.702 252.805 795.189 257.618L795.189 257.618C794.549 263.634 793.988 268.898 795.691 271.911C797.181 273.119 800.377 265.907 801.789 262.15L803.55 245.606L804.22 229.812L808.556 236.594C809.718 238.352 813.021 242.173 816.938 243.387C820.856 244.602 820.807 241.894 820.293 240.388L813.323 229.837C813.927 227.332 814.98 221.869 814.363 220.062C813.746 218.255 812.35 216.797 811.73 216.293C808.031 213.023 799.419 206.803 798.771 204.974Z" fill="#FCE1BA"/>
<path d="M777.078 274.673L785.749 259.993C786.934 255.969 789.447 244.617 788.517 242.458" stroke="#DCCFBD" stroke-linejoin="round"/>
<path d="M802.196 228.693C800.054 226.714 793.59 218.508 790.626 214.653C791.456 214.48 792.479 213.575 789.937 211.334C786.759 208.533 786.047 213.44 785.233 215.773C777.837 215.578 781.931 218.622 777.917 226.379C773.903 234.136 779.311 235.177 777.91 236.766C776.51 238.355 799.098 236.692 800.827 234.602C802.557 232.512 804.873 231.165 802.196 228.693Z" fill="#DCC29B" fill-opacity="0.65"/>
<path d="M803.166 229.445C799.029 233.332 788.298 240.002 778.478 235.582" stroke="#C5B8A5"/>
<path d="M804.221 230.023C800.253 227.182 792.333 220.358 792.402 215.794" stroke="#C5B8A5"/>
<path d="M740.071 204.163C741.728 203.198 741.242 204.163 742.09 202.762L761.141 205.846C762.741 206.09 765.543 212.095 766.744 215.068L765.411 243.016L768.942 253.444L770.545 262.058C770.14 263.518 768.944 266.075 767.402 264.623C765.859 263.171 763.81 255.454 762.979 251.777C762.087 249.358 759.718 244.129 757.376 242.555C755.033 240.982 752.064 248.341 750.872 252.218L750.403 262.038L752.187 266.874C752.77 268.738 753.506 273.009 751.791 275.183C750.076 277.357 747.028 276.488 745.719 275.781L737.477 258.55L737.729 253.262L738.233 242.687C737.435 245.356 735.78 251.901 735.549 256.735C735.261 262.778 735.009 268.066 732.865 270.783C731.207 271.748 729.153 264.132 728.334 260.203L729.126 243.585L730.883 227.874L725.559 233.912C724.142 235.472 720.293 238.741 716.236 239.342C712.178 239.942 712.641 237.273 713.38 235.864L721.884 226.505C721.67 223.937 721.466 218.377 722.352 216.686C723.238 214.994 724.841 213.767 725.532 213.365C729.687 210.7 738.413 205.129 740.071 204.163Z" fill="#FCE1BA"/>
<path d="M750.835 276.362L744.515 260.528C743.96 256.369 743.214 244.767 744.464 242.776" stroke="#DCCFBD" stroke-linejoin="round"/>
<path d="M733.054 227.078C735.474 225.451 743.118 218.332 746.638 214.975C745.844 214.678 744.971 213.627 747.827 211.801C751.397 209.52 751.348 214.478 751.795 216.908C759.135 217.848 754.623 220.23 757.402 228.51C760.181 236.79 754.676 236.99 755.817 238.775C756.958 240.559 734.891 235.458 733.502 233.127C732.113 230.797 730.03 229.112 733.054 227.078Z" fill="#DCC29B" fill-opacity="0.65"/>
<path d="M731.98 227.672C735.474 232.148 745.057 240.382 755.437 237.517" stroke="#C5B8A5"/>
<path d="M730.849 228.083C735.206 225.882 744.078 220.352 744.708 215.831" stroke="#C5B8A5"/>
<path d="M760.049 120.407C759.108 123.261 762.403 123.181 764.168 122.785C767.579 123.736 769.512 122.389 770.052 121.596C769.267 121.199 767.227 120.407 765.345 120.407C763.462 120.407 764.168 112.944 764.168 111.673C762.426 112.52 760.834 118.028 760.049 120.407Z" fill="#D3AD80"/>
<path d="M767.199 121.418C766.182 121.418 766.775 123.112 767.622 123.112L768.046 122.689H769.317L768.893 122.265C768.752 121.982 768.215 121.418 767.199 121.418Z" fill="#583D3B"/>
<path d="M762.849 121.418C761.833 121.418 761.014 122.265 760.731 122.689H762.849H764.12C764.12 122.265 763.866 121.418 762.849 121.418Z" fill="#583D3B"/>
<path d="M775.136 99.8104C778.243 98.1158 785.897 94.3027 788.27 94.3027" stroke="#D1AF7D"/>
<path d="M740.395 94.7263C744.773 95.4324 753.698 97.4378 754.376 99.8104" stroke="#D1AF7D"/>
<path d="M753.652 102.439C743.564 106.568 737.039 98.735 735.038 94.3027L745.903 100.234L754.287 99.5914C756.924 101.176 758.085 100.438 753.652 102.439Z" fill="#583D3B"/>
<path d="M775.098 101.592C785.186 105.72 791.711 97.8879 793.712 93.4556L783.609 98.7443L774.463 98.7443C771.827 100.329 770.666 99.591 775.098 101.592Z" fill="#583D3B"/>
<path d="M751.767 87.9514C743.802 85.1088 739.014 87.2356 737.616 88.6543L745.261 88.5445L756.21 92.1834L757.738 89.8137C757.028 89.6241 754.839 88.9862 751.767 87.9514Z" fill="#503634"/>
<path d="M775.762 87.7384C783.727 84.8958 788.515 87.0226 789.913 88.4413L782.268 88.3315L771.319 91.9704L769.791 89.6007C770.501 89.4111 772.69 88.7732 775.762 87.7384Z" fill="#503634"/>
<path d="M775.983 132.433C767.51 141.923 758.33 136.387 754.8 132.433C756.918 132.009 761.578 131.416 763.273 132.433C765.391 133.704 766.662 133.704 767.933 132.433C768.95 131.416 773.724 132.009 775.983 132.433Z" fill="#F87A7A"/>
<path d="M753.953 132.433C757.766 134.269 767.595 136.839 776.407 132.433" stroke="#826861" stroke-linejoin="round"/>
<path d="M761.579 16.7712C759.319 20.5842 756.156 30.1591 761.579 37.9546C768.357 47.699 760.308 5.33208 761.579 16.7712Z" fill="#52322F"/>
<g filter="url(#filter13_d)">
<path d="M770.054 228.182C746.752 234.114 717.064 260.903 703.114 285.152C761.738 295.233 837.041 309.347 831.062 285.152C823.589 254.909 793.968 237.174 770.054 228.182Z" fill="#85D9E9" fill-opacity="0.7"/>
<path d="M770.054 228.182C746.752 234.114 717.064 260.903 703.114 285.152C761.738 295.233 837.041 309.347 831.062 285.152C823.589 254.909 793.968 237.174 770.054 228.182Z" stroke="#D9F4F5" stroke-opacity="0.7" stroke-width="5"/>
</g>
<path d="M777.17 233.009C759.21 217.425 738.393 263.78 730.229 288.906C764.536 299.352 811.498 313.975 808 288.906C803.626 257.57 791.165 242.325 777.17 233.009Z" fill="#48ABBD" fill-opacity="0.5"/>
<path d="M774.919 239.049C762.035 222.922 747.101 270.894 741.245 296.897C765.856 307.706 799.546 322.84 797.037 296.897C793.899 264.467 784.959 248.69 774.919 239.049Z" fill="#2E8292" fill-opacity="0.3"/>
<ellipse cx="1183.73" cy="234.237" rx="32.6226" ry="32.1989" fill="#E78E68"/>
<ellipse cx="46.0205" cy="46.5401" rx="73.0205" ry="72.5401" fill="#E78E68"/>
</g>
<defs>
<filter id="filter0_d" x="700.748" y="193.09" width="507.112" height="122.004" filterUnits="userSpaceOnUse" color-interpolation-filters="sRGB">
<feFlood flood-opacity="0" result="BackgroundImageFix"/>
<feColorMatrix in="SourceAlpha" type="matrix" values="0 0 0 0 0 0 0 0 0 0 0 0 0 0 0 0 0 0 127 0"/>
<feOffset dy="-2"/>
<feGaussianBlur stdDeviation="2.5"/>
<feColorMatrix type="matrix" values="0 0 0 0 0 0 0 0 0 0 0 0 0 0 0 0 0 0 0.25 0"/>
<feBlend mode="normal" in2="BackgroundImageFix" result="effect1_dropShadow"/>
<feBlend mode="normal" in="SourceGraphic" in2="effect1_dropShadow" result="shape"/>
</filter>
<filter id="filter1_d" x="-706.203" y="190.041" width="715.777" height="177.218" filterUnits="userSpaceOnUse" color-interpolation-filters="sRGB">
<feFlood flood-opacity="0" result="BackgroundImageFix"/>
<feColorMatrix in="SourceAlpha" type="matrix" values="0 0 0 0 0 0 0 0 0 0 0 0 0 0 0 0 0 0 127 0"/>
<feOffset dy="-2"/>
<feGaussianBlur stdDeviation="2.5"/>
<feColorMatrix type="matrix" values="0 0 0 0 0 0 0 0 0 0 0 0 0 0 0 0 0 0 0.25 0"/>
<feBlend mode="normal" in2="BackgroundImageFix" result="effect1_dropShadow"/>
<feBlend mode="normal" in="SourceGraphic" in2="effect1_dropShadow" result="shape"/>
</filter>
<filter id="filter2_d" x="887.38" y="202.326" width="656.56" height="164.826" filterUnits="userSpaceOnUse" color-interpolation-filters="sRGB">
<feFlood flood-opacity="0" result="BackgroundImageFix"/>
<feColorMatrix in="SourceAlpha" type="matrix" values="0 0 0 0 0 0 0 0 0 0 0 0 0 0 0 0 0 0 127 0"/>
<feOffset dy="-2"/>
<feGaussianBlur stdDeviation="1"/>
<feColorMatrix type="matrix" values="0 0 0 0 0 0 0 0 0 0 0 0 0 0 0 0 0 0 0.25 0"/>
<feBlend mode="normal" in2="BackgroundImageFix" result="effect1_dropShadow"/>
<feBlend mode="normal" in="SourceGraphic" in2="effect1_dropShadow" result="shape"/>
</filter>
<filter id="filter3_d" x="-563.187" y="165.587" width="1288.6" height="181.261" filterUnits="userSpaceOnUse" color-interpolation-filters="sRGB">
<feFlood flood-opacity="0" result="BackgroundImageFix"/>
<feColorMatrix in="SourceAlpha" type="matrix" values="0 0 0 0 0 0 0 0 0 0 0 0 0 0 0 0 0 0 127 0"/>
<feOffset dy="-2"/>
<feGaussianBlur stdDeviation="2.5"/>
<feColorMatrix type="matrix" values="0 0 0 0 0 0 0 0 0 0 0 0 0 0 0 0 0 0 0.25 0"/>
<feBlend mode="normal" in2="BackgroundImageFix" result="effect1_dropShadow"/>
<feBlend mode="normal" in="SourceGraphic" in2="effect1_dropShadow" result="shape"/>
</filter>
<filter id="filter4_d" x="-809" y="247.771" width="1055.86" height="170.669" filterUnits="userSpaceOnUse" color-interpolation-filters="sRGB">
<feFlood flood-opacity="0" result="BackgroundImageFix"/>
<feColorMatrix in="SourceAlpha" type="matrix" values="0 0 0 0 0 0 0 0 0 0 0 0 0 0 0 0 0 0 127 0"/>
<feOffset dy="-2"/>
<feGaussianBlur stdDeviation="2.5"/>
<feColorMatrix type="matrix" values="0 0 0 0 0 0 0 0 0 0 0 0 0 0 0 0 0 0 0.25 0"/>
<feBlend mode="normal" in2="BackgroundImageFix" result="effect1_dropShadow"/>
<feBlend mode="normal" in="SourceGraphic" in2="effect1_dropShadow" result="shape"/>
</filter>
<filter id="filter5_dd" x="-63.332" y="201.984" width="754.134" height="184.687" filterUnits="userSpaceOnUse" color-interpolation-filters="sRGB">
<feFlood flood-opacity="0" result="BackgroundImageFix"/>
<feColorMatrix in="SourceAlpha" type="matrix" values="0 0 0 0 0 0 0 0 0 0 0 0 0 0 0 0 0 0 127 0"/>
<feOffset dy="-2"/>
<feGaussianBlur stdDeviation="2.5"/>
<feColorMatrix type="matrix" values="0 0 0 0 0 0 0 0 0 0 0 0 0 0 0 0 0 0 0.25 0"/>
<feBlend mode="normal" in2="BackgroundImageFix" result="effect1_dropShadow"/>
<feColorMatrix in="SourceAlpha" type="matrix" values="0 0 0 0 0 0 0 0 0 0 0 0 0 0 0 0 0 0 127 0"/>
<feOffset dy="2"/>
<feGaussianBlur stdDeviation="1"/>
<feColorMatrix type="matrix" values="0 0 0 0 0 0 0 0 0 0 0 0 0 0 0 0 0 0 0.25 0"/>
<feBlend mode="normal" in2="effect1_dropShadow" result="effect2_dropShadow"/>
<feBlend mode="normal" in="SourceGraphic" in2="effect2_dropShadow" result="shape"/>
</filter>
<filter id="filter6_d" x="970.784" y="168.381" width="1335.3" height="170.096" filterUnits="userSpaceOnUse" color-interpolation-filters="sRGB">
<feFlood flood-opacity="0" result="BackgroundImageFix"/>
<feColorMatrix in="SourceAlpha" type="matrix" values="0 0 0 0 0 0 0 0 0 0 0 0 0 0 0 0 0 0 127 0"/>
<feOffset dy="-2"/>
<feGaussianBlur stdDeviation="2.5"/>
<feColorMatrix type="matrix" values="0 0 0 0 0 0 0 0 0 0 0 0 0 0 0 0 0 0 0.25 0"/>
<feBlend mode="normal" in2="BackgroundImageFix" result="effect1_dropShadow"/>
<feBlend mode="normal" in="SourceGraphic" in2="effect1_dropShadow" result="shape"/>
</filter>
<filter id="filter7_d" x="1197.86" y="202.911" width="855.398" height="151.567" filterUnits="userSpaceOnUse" color-interpolation-filters="sRGB">
<feFlood flood-opacity="0" result="BackgroundImageFix"/>
<feColorMatrix in="SourceAlpha" type="matrix" values="0 0 0 0 0 0 0 0 0 0 0 0 0 0 0 0 0 0 127 0"/>
<feOffset dy="-2"/>
<feGaussianBlur stdDeviation="2.5"/>
<feColorMatrix type="matrix" values="0 0 0 0 0 0 0 0 0 0 0 0 0 0 0 0 0 0 0.25 0"/>
<feBlend mode="normal" in2="BackgroundImageFix" result="effect1_dropShadow"/>
<feBlend mode="normal" in="SourceGraphic" in2="effect1_dropShadow" result="shape"/>
</filter>
<filter id="filter8_d" x="898.672" y="233.957" width="1374.73" height="171.721" filterUnits="userSpaceOnUse" color-interpolation-filters="sRGB">
<feFlood flood-opacity="0" result="BackgroundImageFix"/>
<feColorMatrix in="SourceAlpha" type="matrix" values="0 0 0 0 0 0 0 0 0 0 0 0 0 0 0 0 0 0 127 0"/>
<feOffset dy="-2"/>
<feGaussianBlur stdDeviation="2.5"/>
<feColorMatrix type="matrix" values="0 0 0 0 0 0 0 0 0 0 0 0 0 0 0 0 0 0 0.25 0"/>
<feBlend mode="normal" in2="BackgroundImageFix" result="effect1_dropShadow"/>
<feBlend mode="normal" in="SourceGraphic" in2="effect1_dropShadow" result="shape"/>
</filter>
<filter id="filter9_d" x="1322.14" y="273.488" width="855.398" height="151.567" filterUnits="userSpaceOnUse" color-interpolation-filters="sRGB">
<feFlood flood-opacity="0" result="BackgroundImageFix"/>
<feColorMatrix in="SourceAlpha" type="matrix" values="0 0 0 0 0 0 0 0 0 0 0 0 0 0 0 0 0 0 127 0"/>
<feOffset dy="-2"/>
<feGaussianBlur stdDeviation="2.5"/>
<feColorMatrix type="matrix" values="0 0 0 0 0 0 0 0 0 0 0 0 0 0 0 0 0 0 0.25 0"/>
<feBlend mode="normal" in2="BackgroundImageFix" result="effect1_dropShadow"/>
<feBlend mode="normal" in="SourceGraphic" in2="effect1_dropShadow" result="shape"/>
</filter>
<filter id="filter10_d" x="-113.639" y="205.623" width="890.736" height="109.446" filterUnits="userSpaceOnUse" color-interpolation-filters="sRGB">
<feFlood flood-opacity="0" result="BackgroundImageFix"/>
<feColorMatrix in="SourceAlpha" type="matrix" values="0 0 0 0 0 0 0 0 0 0 0 0 0 0 0 0 0 0 127 0"/>
<feOffset dy="-2"/>
<feGaussianBlur stdDeviation="2.5"/>
<feColorMatrix type="matrix" values="0 0 0 0 0 0 0 0 0 0 0 0 0 0 0 0 0 0 0.25 0"/>
<feBlend mode="normal" in2="BackgroundImageFix" result="effect1_dropShadow"/>
<feBlend mode="normal" in="SourceGraphic" in2="effect1_dropShadow" result="shape"/>
</filter>
<filter id="filter11_d" x="519.324" y="207.761" width="1039.09" height="120.865" filterUnits="userSpaceOnUse" color-interpolation-filters="sRGB">
<feFlood flood-opacity="0" result="BackgroundImageFix"/>
<feColorMatrix in="SourceAlpha" type="matrix" values="0 0 0 0 0 0 0 0 0 0 0 0 0 0 0 0 0 0 127 0"/>
<feOffset dy="-2"/>
<feGaussianBlur stdDeviation="2.5"/>
<feColorMatrix type="matrix" values="0 0 0 0 0 0 0 0 0 0 0 0 0 0 0 0 0 0 0.25 0"/>
<feBlend mode="normal" in2="BackgroundImageFix" result="effect1_dropShadow"/>
<feBlend mode="normal" in="SourceGraphic" in2="effect1_dropShadow" result="shape"/>
</filter>
<filter id="filter12_d" x="762.51" y="224.176" width="520.945" height="113.771" filterUnits="userSpaceOnUse" color-interpolation-filters="sRGB">
<feFlood flood-opacity="0" result="BackgroundImageFix"/>
<feColorMatrix in="SourceAlpha" type="matrix" values="0 0 0 0 0 0 0 0 0 0 0 0 0 0 0 0 0 0 127 0"/>
<feOffset dy="-2"/>
<feGaussianBlur stdDeviation="2.5"/>
<feColorMatrix type="matrix" values="0 0 0 0 0 0 0 0 0 0 0 0 0 0 0 0 0 0 0.25 0"/>
<feBlend mode="normal" in2="BackgroundImageFix" result="effect1_dropShadow"/>
<feBlend mode="normal" in="SourceGraphic" in2="effect1_dropShadow" result="shape"/>
</filter>
<filter id="filter13_d" x="695.162" y="225.566" width="142.734" height="83.446" filterUnits="userSpaceOnUse" color-interpolation-filters="sRGB">
<feFlood flood-opacity="0" result="BackgroundImageFix"/>
<feColorMatrix in="SourceAlpha" type="matrix" values="0 0 0 0 0 0 0 0 0 0 0 0 0 0 0 0 0 0 127 0"/>
<feOffset dy="4"/>
<feGaussianBlur stdDeviation="2"/>
<feColorMatrix type="matrix" values="0 0 0 0 0 0 0 0 0 0 0 0 0 0 0 0 0 0 0.25 0"/>
<feBlend mode="normal" in2="BackgroundImageFix" result="effect1_dropShadow"/>
<feBlend mode="normal" in="SourceGraphic" in2="effect1_dropShadow" result="shape"/>
</filter>
<linearGradient id="paint0_linear" x1="1493.78" y1="-56.7564" x2="1493.78" y2="258.15" gradientUnits="userSpaceOnUse">
<stop stop-color="#63BAC6"/>
<stop offset="0.759076" stop-color="#F5E1C1"/>
</linearGradient>
<clipPath id="clip0">
<rect width="1519.2" height="280" fill="white"/>
</clipPath>
</defs>
</svg>
