<svg width="1920" height="956" viewBox="0 0 1920 956" fill="none" xmlns="http://www.w3.org/2000/svg">
<rect width="1920" height="880" fill="url(#paint0_linear)"/>
<path d="M392 154C155.2 115.6 26.6667 186 -8 226V898L1936 916L1916 154C1861.33 164.667 1711.2 174.8 1548 130C1344 74 1140 198 900 226C708 248.4 481.333 187.333 392 154Z" fill="#B5E3EA" fill-opacity="0.3"/>
<path d="M235.742 126.336C55.9268 87.9538 -41.6757 158.321 -68 198.302L-54 912H1954L1944 102C1902.49 112.662 1404 300 1180 198.302C1030.02 130.211 803.74 170.315 621.495 198.302C475.698 220.691 303.578 159.653 235.742 126.336Z" fill="#B5E3EA" fill-opacity="0.3"/>
<path d="M1516.08 203.438C1751.65 164.954 1879.51 235.508 1914 275.596V917H0V203.438C54.3826 214.128 203.736 224.284 366.087 179.385C569.027 123.262 771.967 247.534 1010.72 275.596C1201.72 298.045 1427.21 236.844 1516.08 203.438Z" fill="#63BAC6" fill-opacity="0.3"/>
<path d="M370.462 232.784C110.892 205.968 -30 255.131 -68 283.064V916H2028L2041 232.784C1981.08 240.233 1816.51 247.309 1637.62 216.024C1414 176.917 1190.38 263.511 927.308 283.064C716.846 298.707 468.385 256.062 370.462 232.784Z" fill="#63BAC6" fill-opacity="0.3"/>
<path d="M1554.69 268.901C1799.37 238.964 1932.18 293.849 1968 325.034V920H-20V268.901C36.4851 277.217 191.613 285.117 360.241 250.19C571.027 206.532 781.813 303.205 1029.8 325.034C1228.18 342.497 1462.39 294.889 1554.69 268.901Z" fill="#63BAC6" fill-opacity="0.5"/>
<path d="M394.306 304.901C149.629 274.964 16.8198 329.849 -19 361.034V956H1969V304.901C1912.51 313.217 1757.39 321.117 1588.76 286.19C1377.97 242.532 1167.19 339.205 919.204 361.034C720.817 378.497 486.611 330.889 394.306 304.901Z" fill="#63BAC6"/>
<defs>
<linearGradient id="paint0_linear" x1="960" y1="-138.157" x2="960" y2="880" gradientUnits="userSpaceOnUse">
<stop stop-color="#FBCDA3"/>
<stop offset="0.677083" stop-color="#63BAC6"/>
</linearGradient>
</defs>
</svg>
