<svg width="1920" height="200" viewBox="0 0 1920 200" fill="none" xmlns="http://www.w3.org/2000/svg">
<rect width="1920" height="200" fill="#63BAC6"/>
<circle cx="1170.5" cy="163.5" r="56.5" fill="#2F889D" fill-opacity="0.5"/>
<circle cx="1625.5" cy="109.5" r="39.5" fill="#2F889D" fill-opacity="0.5"/>
<path d="M184 73C184 85.7025 173.703 96 161 96C148.297 96 138 85.7025 138 73C138 60.2975 148.297 50 161 50C173.703 50 184 60.2975 184 73Z" fill="#2F889D" fill-opacity="0.3"/>
<path d="M332 33C343.833 30 387.1 27.1 465.5 39.5C502.833 44 591.1 45.2 645.5 14M451.5 58.5C488.833 63 544.5 68.5 599.5 49.5" stroke="#9ED1D8" stroke-width="8" stroke-linecap="round" stroke-linejoin="round"/>
<path d="M357.5 52C339.1 75.6 347.833 90.8333 354.5 95.5C353.3 124.3 358.667 169.833 361.5 189L341 168.5C343.8 152.1 327.167 145.333 318.5 144C319.3 170.4 333.833 173.667 341 172L365.5 199.5H369V189L382 165L408 144C432.4 139.6 439.167 118.833 439.5 109C400 118 408 141 406 141C404 141 388.5 158 385 158C385 154.8 402.667 123 411.5 107.5C432.7 90.3 432 69.3333 429 61C407.5 73 407 86 408 100C408.8 111.2 395.333 132 388.5 141L391.5 124.5C399.9 116.9 396.333 96.6667 393.5 87.5C375.5 101.9 381.333 118.167 386.5 124.5L385 149.5L365.5 186C360.3 183.6 358 124.667 357.5 95.5C371.1 80.7 363.167 60.3333 357.5 52Z" fill="#39978B"/>
<path d="M577 44C558.6 67.6 567.333 82.8333 574 87.5C572.8 116.3 578.167 161.833 581 181L560.5 160.5C563.3 144.1 546.667 137.333 538 136C538.8 162.4 553.333 165.667 560.5 164L585 191.5H588.5V181L601.5 157L627.5 136C651.9 131.6 658.667 110.833 659 101C619.5 110 627.5 133 625.5 133C623.5 133 608 150 604.5 150C604.5 146.8 622.167 115 631 99.5C652.2 82.3 651.5 61.3333 648.5 53C627 65 626.5 78 627.5 92C628.3 103.2 614.833 124 608 133L611 116.5C619.4 108.9 615.833 88.6667 613 79.5C595 93.9 600.833 110.167 606 116.5L604.5 141.5L585 178C579.8 175.6 577.5 116.667 577 87.5C590.6 72.7 582.667 52.3333 577 44Z" fill="#23705D"/>
<path d="M594 115C575.6 138.6 584.333 153.833 591 158.5C589.8 187.3 595.167 232.833 598 252L577.5 231.5C580.3 215.1 563.667 208.333 555 207C555.8 233.4 570.333 236.667 577.5 235L602 262.5H605.5V252L618.5 228L644.5 207C668.9 202.6 675.667 181.833 676 172C636.5 181 644.5 204 642.5 204C640.5 204 625 221 621.5 221C621.5 217.8 639.167 186 648 170.5C669.2 153.3 668.5 132.333 665.5 124C644 136 643.5 149 644.5 163C645.3 174.2 631.833 195 625 204L628 187.5C636.4 179.9 632.833 159.667 630 150.5C612 164.9 617.833 181.167 623 187.5L621.5 212.5L602 249C596.8 246.6 594.5 187.667 594 158.5C607.6 143.7 599.667 123.333 594 115Z" fill="#23705D"/>
<path d="M1383 70C1364.6 93.6 1373.33 108.833 1380 113.5C1378.8 142.3 1384.17 187.833 1387 207L1366.5 186.5C1369.3 170.1 1352.67 163.333 1344 162C1344.8 188.4 1359.33 191.667 1366.5 190L1391 217.5H1394.5V207L1407.5 183L1433.5 162C1457.9 157.6 1464.67 136.833 1465 127C1425.5 136 1433.5 159 1431.5 159C1429.5 159 1414 176 1410.5 176C1410.5 172.8 1428.17 141 1437 125.5C1458.2 108.3 1457.5 87.3333 1454.5 79C1433 91 1432.5 104 1433.5 118C1434.3 129.2 1420.83 150 1414 159L1417 142.5C1425.4 134.9 1421.83 114.667 1419 105.5C1401 119.9 1406.83 136.167 1412 142.5L1410.5 167.5L1391 204C1385.8 201.6 1383.5 142.667 1383 113.5C1396.6 98.7 1388.67 78.3333 1383 70Z" fill="#39978B" fill-opacity="0.5"/>
<path d="M306 126C287.6 149.6 296.333 164.833 303 169.5C301.8 198.3 307.167 243.833 310 263L289.5 242.5C292.3 226.1 275.667 219.333 267 218C267.8 244.4 282.333 247.667 289.5 246L314 273.5H317.5V263L330.5 239L356.5 218C380.9 213.6 387.667 192.833 388 183C348.5 192 356.5 215 354.5 215C352.5 215 337 232 333.5 232C333.5 228.8 351.167 197 360 181.5C381.2 164.3 380.5 143.333 377.5 135C356 147 355.5 160 356.5 174C357.3 185.2 343.833 206 337 215L340 198.5C348.4 190.9 344.833 170.667 342 161.5C324 175.9 329.833 192.167 335 198.5L333.5 223.5L314 260C308.8 257.6 306.5 198.667 306 169.5C319.6 154.7 311.667 134.333 306 126Z" fill="#39978B"/>
<path d="M736 118C717.6 141.6 726.333 156.833 733 161.5C731.8 190.3 737.167 235.833 740 255L719.5 234.5C722.3 218.1 705.667 211.333 697 210C697.8 236.4 712.333 239.667 719.5 238L744 265.5H747.5V255L760.5 231L786.5 210C810.9 205.6 817.667 184.833 818 175C778.5 184 786.5 207 784.5 207C782.5 207 767 224 763.5 224C763.5 220.8 781.167 189 790 173.5C811.2 156.3 810.5 135.333 807.5 127C786 139 785.5 152 786.5 166C787.3 177.2 773.833 198 767 207L770 190.5C778.4 182.9 774.833 162.667 772 153.5C754 167.9 759.833 184.167 765 190.5L763.5 215.5L744 252C738.8 249.6 736.5 190.667 736 161.5C749.6 146.7 741.667 126.333 736 118Z" fill="#39978B"/>
<path d="M1385.26 51.0129C1391.73 41.934 1397.53 47.2301 1399.63 51.0129C1410.41 48.491 1410.41 47.23 1413.1 53.5348C1415.26 58.5786 1404.42 62.7818 1398.73 64.2529L1396.04 76.8625C1398.19 71.3143 1406.52 71.1882 1410.41 71.8187C1421.19 79.3844 1403.52 86.3197 1393.34 88.8416L1389.75 107.125C1398.7 94.0115 1409.05 95.7769 1413.1 98.2988C1427.47 114.439 1403.52 121.837 1389.75 123.518L1396.93 148.737C1402.68 131.084 1418.49 130.453 1425.68 132.345C1437.17 143.945 1416.1 157.354 1404.12 162.608L1411.31 179H1399.63L1396.04 162.608C1385.34 163.518 1377.05 161.726 1370.89 158.944C1360.56 154.28 1360.88 138.236 1372.13 139.529C1378.73 140.288 1385.6 144.228 1389.75 147.476L1383.46 123.518C1380.16 125.174 1372.81 121.666 1366.28 117.634C1360.37 113.985 1353.88 104.91 1360.21 102.04C1365.9 99.4541 1377.89 104.707 1385.26 109.017V87.5806C1383.67 87.5806 1381.21 86.1888 1378.65 84.3265C1372.85 80.1108 1368.75 69.146 1375.78 67.7685C1380.37 66.8706 1386.31 72.4325 1389.75 76.8625L1393.34 62.3615L1385.26 51.0129Z" fill="#589485" fill-opacity="0.6"/>
<path d="M516.5 102C512.9 94.8 509.667 99 508.5 102C502.5 100 502.5 99 501 104C499.8 108 505.833 111.333 509 112.5L510.5 122.5C509.3 118.1 504.667 118 502.5 118.5C496.5 124.5 506.333 130 512 132L514 146.5C509.016 136.1 503.257 137.5 501 139.5C493 152.3 506.333 158.167 514 159.5L510 179.5C506.8 165.5 498 165 494 166.5C487.6 175.7 499.333 186.333 506 190.5L502 203.5H508.5L510.5 190.5C516.14 191.184 520.581 189.944 523.948 187.936C530.973 183.747 530.423 170.11 522.596 172.482C519.313 173.478 516.056 176.206 514 178.5L517.5 159.5C519.085 160.632 522.346 158.721 525.543 156.124C530.047 152.464 535.222 143.909 529.702 142.116C526.319 141.017 520.304 144.83 516.5 148V131C517.26 131 518.382 130.181 519.591 129.01C523.507 125.214 526.945 116.17 521.571 115.242C519.047 114.807 515.866 119.079 514 122.5L512 111L516.5 102Z" fill="#8ACFBE"/>
<path d="M1494.09 114.346C1492.67 106.917 1489.45 110.477 1488.01 113.185C1483.82 110.396 1484 109.437 1481.95 114.015C1480.3 117.678 1484.28 121.751 1486.47 123.329L1485.78 133.139C1485.67 128.744 1482.17 127.976 1480.43 128.141C1474.77 133.026 1481.24 139.728 1485.18 142.469L1484.04 156.667C1482.16 145.969 1477.53 146.476 1475.45 148.067C1467.02 159.184 1476.08 166.746 1481.66 169.137L1474.96 187.741C1475.09 173.848 1468.5 172.092 1465.18 172.95C1458.63 180.846 1465.6 192.748 1469.9 197.712L1464.48 209.601L1469.42 210.544L1473.32 198.364C1478.04 200.035 1482.04 199.112 1485.15 197.234C1490.75 193.85 1493.15 182.44 1486.61 182.745C1483.75 182.878 1480.36 185.268 1478.18 187.362L1484.32 169.645C1485.33 170.986 1488.25 169.547 1491.21 167.455C1495.28 164.584 1500.35 159.242 1497.35 155.276C1495.38 152.683 1489.45 155.752 1485.66 158.469L1488.78 142.162C1489.45 142.291 1490.7 141.427 1492.05 140.213C1495.39 137.231 1498.56 132.308 1496.26 128.475C1494.69 125.868 1490.79 130.174 1488.44 133.647L1489.02 122.326L1494.09 114.346Z" fill="#589485"/>
<path d="M1300.66 31.9999C1307.06 32.7999 1306.66 64.9999 1305.66 80.9999C1307.66 84.1999 1309.16 82.3333 1309.66 80.9999V65.5C1311.16 59 1318.66 62 1317.66 65.5V94.1336C1317.66 98.3355 1315.27 102.17 1311.5 104.016L1303.97 107.692C1298.62 110.309 1295.33 115.846 1295.58 121.799L1296.92 153.752C1297.06 156.965 1299.7 159.5 1302.92 159.5H1307.16C1310.48 159.5 1313.16 156.814 1313.16 153.5V145C1302.76 147 1302.16 132.5 1303.16 125C1307.96 119.8 1310.5 125.167 1311.16 128.5C1312.36 134.1 1315.33 134.833 1316.66 134.5C1315.86 113.3 1318.16 110.5 1321.66 110.5C1330.06 110.5 1326.16 143 1327.16 161C1328.16 165.5 1325.36 177.1 1306.16 175.5C1286.96 173.9 1287.16 193.5 1289.66 203.5H1263.16L1260.66 179.5C1241.46 179.9 1238.33 162.667 1239.16 154H1224.16C1214.56 154.8 1212.5 146 1212.66 141.5C1211.86 126.3 1214.33 124.167 1215.66 125C1220.06 123.8 1220.16 135.5 1219.66 141.5C1221.66 144.7 1223.5 142.833 1224.16 141.5V107C1211.92 108.6 1207.06 96.3333 1206.16 90C1204.16 41 1211.66 48.5 1211.66 47C1220.46 42.6 1220 73.8333 1218.66 90C1221.46 92.4 1225.16 91 1226.66 90C1225.46 66.4 1230.83 63.8333 1233.66 65.5C1240.46 66.3 1240.16 95.8333 1239.16 110.5C1238.36 141.3 1241.83 142.333 1243.66 139C1242.86 125.4 1247.33 122.667 1249.66 123C1256.46 122.2 1256.16 139.667 1255.16 148.5C1255.56 157.3 1260.66 163.5 1263.16 165.5H1270.66C1273.98 165.5 1276.66 162.814 1276.66 159.5V156.5C1276.66 153.186 1273.82 150.669 1270.88 149.137C1265.87 146.523 1263.67 140.775 1263.16 137.5V119.5C1243.96 120.7 1247.5 102.667 1251.66 93.5C1258.46 89.9 1259.5 101 1259.16 107C1260.36 109.8 1262.33 108.167 1263.16 107C1261.16 83 1269.16 88 1269.66 87C1274.46 86.6 1276.33 92.1667 1276.66 95V137.5C1280.26 143.9 1283.5 140.167 1284.66 137.5V112C1285.06 102.8 1293.16 99.8333 1297.16 99.5C1299.96 98.3 1298.33 93.6667 1297.16 91.5C1282.76 93.9 1282.27 85.5 1282.16 80.9999C1281.66 59.9999 1285.16 85 1285.16 64.5C1290.76 63.3 1290.83 75 1290.16 80.9999C1291.76 84.1999 1293.16 82.3333 1293.66 80.9999C1293.33 64.3333 1294.26 31.1999 1300.66 31.9999Z" fill="#E78E68"/>
<path d="M74.8391 40.0142C81.2391 40.8142 80.8391 73.0142 79.8391 89.0142C81.8392 92.2142 83.3391 90.3475 83.8391 89.0142V73.5143C85.3391 67.0143 92.8391 70.0143 91.8391 73.5143V102.148C91.8391 106.35 89.4453 110.185 85.6704 112.03L78.1502 115.707C72.7975 118.324 69.501 123.86 69.7517 129.813L71.0971 161.767C71.2324 164.979 73.8763 167.514 77.0918 167.514H81.3391C84.6528 167.514 87.3391 164.828 87.3391 161.514V153.014C76.9391 155.014 76.3391 140.514 77.3391 133.014C82.139 127.814 84.6724 133.181 85.3391 136.514C86.5391 142.114 89.5057 142.848 90.8391 142.514C90.0391 121.314 92.3391 118.514 95.8391 118.514C104.239 118.514 100.339 151.014 101.339 169.014C102.339 173.514 99.5391 185.114 80.3391 183.514C61.1391 181.914 61.3391 201.514 63.8391 211.514H37.3391L34.8391 187.514C15.6391 187.914 12.5058 170.681 13.3391 162.014H-1.6609C-11.2609 162.814 -13.3276 154.014 -13.1609 149.514C-13.9609 134.314 -11.4942 132.181 -10.1609 133.014C-5.76089 131.814 -5.6609 143.514 -6.1609 149.514C-4.1609 152.714 -2.32756 150.848 -1.6609 149.514V115.014C-13.904 116.614 -18.7622 104.348 -19.6609 98.0143C-21.6609 49.0143 -14.1609 56.5143 -14.1609 55.0143C-5.36089 50.6143 -5.82756 81.8476 -7.1609 98.0143C-4.36089 100.414 -0.660896 99.0143 0.839104 98.0143C-0.360893 74.4143 5.00577 71.8476 7.8391 73.5143C14.6391 74.3143 14.3391 103.848 13.3391 118.514C12.5391 149.314 16.0058 150.348 17.8391 147.014C17.0391 133.414 21.5058 130.681 23.8391 131.014C30.6391 130.214 30.3391 147.681 29.3391 156.514C29.7391 165.314 34.8391 171.514 37.3391 173.514H44.8391C48.1528 173.514 50.8391 170.828 50.8391 167.514V164.514C50.8391 161.201 47.9926 158.684 45.0543 157.152C40.0407 154.538 37.8429 148.789 37.3391 145.514V127.514C18.1391 128.714 21.6724 110.681 25.8391 101.514C32.6391 97.9143 33.6724 109.014 33.3391 115.014C34.5391 117.814 36.5058 116.181 37.3391 115.014C35.3391 91.0143 43.3391 96.0143 43.8391 95.0143C48.6391 94.6143 50.5058 100.181 50.8391 103.014V145.514C54.4391 151.914 57.6724 148.181 58.8391 145.514V120.014C59.2391 110.814 67.3391 107.848 71.3391 107.514C74.1391 106.314 72.5058 101.681 71.3391 99.5143C56.9391 101.914 56.4463 93.5143 56.3391 89.0142C55.8391 68.0142 59.3391 93.0143 59.3391 72.5143C64.9391 71.3143 65.0058 83.0142 64.3391 89.0142C65.9391 92.2142 67.3391 90.3475 67.8391 89.0142C67.5058 72.3476 68.4391 39.2142 74.8391 40.0142Z" fill="#EE977C"/>
<path d="M1538 123C1544.8 138.2 1544.83 169.333 1544 183C1539.2 180.2 1538 170.833 1538 166.5C1540.4 138.1 1536 129.667 1533.5 129C1527.38 125.8 1523.95 132.333 1523 136C1521 125.2 1516.5 122.833 1514.5 123C1501 127.5 1516 155.5 1516 158.5C1530.4 181.7 1532 195.833 1531 200H1578C1597.6 194.8 1613.5 146.5 1619 123C1622.6 101 1611.83 102.167 1606 105.5C1594.4 93.5 1592.5 107.833 1593 116.5C1602.6 161.7 1587 173.333 1578 173.5L1588.5 144.5C1592.5 121.3 1583.17 123.167 1578 127C1564.8 107.4 1563.83 130.5 1565 144.5C1565.4 158.5 1561.5 169.667 1559.5 173.5C1555.5 154.3 1555.5 131.833 1556 123C1565.6 96.7323 1562.33 86.3885 1559.5 84.5C1559.1 75.3 1550.67 83 1546.5 88C1548.5 79.2 1544 76 1541.5 75.5C1525.9 75.9 1532.67 107.333 1538 123Z" fill="#DFFF9A"/>
<path d="M81.1343 143.5C87.9343 158.7 87.9677 189.833 87.1343 203.5C82.3343 200.7 81.1343 191.333 81.1343 187C83.5343 158.6 79.1344 150.167 76.6344 149.5C70.5161 146.3 67.0851 152.833 66.1344 156.5C64.1344 145.7 59.6344 143.333 57.6344 143.5C44.1344 148 59.1344 176 59.1344 179C73.5344 202.2 75.1344 216.333 74.1344 220.5H121.134C140.734 215.3 156.634 167 162.134 143.5C165.734 121.5 154.968 122.667 149.134 126C137.534 114 135.634 128.333 136.134 137C145.734 182.2 130.134 193.833 121.134 194L131.634 165C135.634 141.8 126.301 143.667 121.134 147.5C107.934 127.9 106.968 151 108.134 165C108.534 179 104.634 190.167 102.634 194C98.6344 174.8 98.6344 152.333 99.1344 143.5C108.734 117.232 105.468 106.888 102.634 105C102.234 95.8 93.801 103.5 89.6344 108.5C91.6344 99.7 87.1344 96.5 84.6343 96C69.0343 96.4 75.801 127.833 81.1343 143.5Z" fill="#DFFF9A"/>
<path d="M181.356 141.734C190.261 114.715 168.791 77.0846 156.942 61.6465C165.112 110.974 164.113 123.303 156.783 137.188C150.92 148.295 142.293 187.397 138.712 205.559L167.323 200.821C164.502 193.584 175.503 158.414 181.356 141.734Z" fill="#65A970"/>
<path d="M1761 208C1767.68 208 1894.52 50.5 2000 208H1761Z" fill="#297081"/>
<path d="M443 199.778C448 199.778 543 146.278 622 199.778H443Z" fill="#2F889D"/>
<path d="M448.787 154.878C447.434 146.943 443.12 150.022 441.132 152.554C435.972 148.897 436.262 147.94 433.374 152.289C431.064 155.768 435.869 160.71 438.56 162.746L437.09 172.751C437.22 168.192 432.816 166.75 430.597 166.599C423.113 170.597 430.924 178.717 435.765 182.277L433.467 196.732C431.719 185.333 425.802 185 423.061 186.258C411.687 196.182 422.741 205.669 429.69 209.172L420.052 227.147C421.058 212.821 412.782 209.786 408.519 210.06C399.722 217.004 407.861 230.587 413.029 236.511L405.425 247.788L411.645 249.676L417.335 237.818C422.533 240.111 427.143 240.215 430.948 239.272C438.887 237.304 442.323 224.095 434.144 224.092C430.714 224.09 426.804 225.755 424.17 227.352L433.039 210.189C434.227 211.732 437.902 210.851 441.716 209.294C447.089 207.101 454.526 200.418 449.765 197.099C446.847 195.065 439.984 196.966 435.423 198.894L440.362 182.627C441.089 182.848 442.401 182.39 443.897 181.621C448.747 179.127 454.665 171.471 449.792 169.022C447.504 167.872 443.218 171.036 440.439 173.768L441.866 162.182L448.787 154.878Z" fill="#8ACFBE"/>
<path d="M1792.5 114.5C1801.3 66.1 1790.5 18 1784 0H1809.5C1830.5 36.5 1828.5 108.5 1815.5 133.5C1805.1 153.5 1795.83 186.5 1792.5 200.5H1761C1759 190.1 1781.17 138.833 1792.5 114.5Z" fill="#65A970"/>
<path d="M1859.5 144.5C1872.7 119.3 1857.67 78.6667 1848.5 61.5C1848.5 111.5 1845.5 123.5 1836 136C1828.4 146 1813.5 183.167 1807 200.5H1836C1834.4 192.9 1851 160 1859.5 144.5Z" fill="#65A970"/>
<path d="M1909 200.5C1922.2 156.5 1906.83 121.5 1897.5 109.5C1903.1 153.9 1887.83 188.667 1879.5 200.5H1909Z" fill="#65A970"/>
<path d="M1509 0.287805C1510.76 -0.108054 1513.23 -0.0836216 1516.38 0.287805L1812 0.287781C1786.27 17.5351 1744.51 16.8718 1726.85 14.3842C1689.76 7.52946 1669.29 9.1326 1663.69 10.791C1623.96 21.1837 1595.1 19.5437 1585.64 17.4246C1553.66 9.23958 1529.34 1.81821 1516.38 0.287805L1509 0.287805Z" fill="#9ED1D8"/>
<path d="M1585.64 31.4247C1595.1 33.5437 1623.96 35.1837 1663.69 24.7911C1669.29 23.1327 1689.76 21.5295 1726.85 28.3842C1744.51 30.8718 1786.27 31.5352 1812 14.2878" stroke="#9ED1D8" stroke-width="8" stroke-linecap="round" stroke-linejoin="round"/>
<path d="M1664.06 42.5032C1669.65 40.8448 1690.12 39.2417 1727.21 46.0964C1744.87 48.584 1786.63 49.2474 1812.36 32" stroke="#9ED1D8" stroke-width="6" stroke-linecap="round" stroke-linejoin="round"/>
<path d="M222.393 139.707C228.952 112.026 204.338 76.3718 191.211 62.0049C203.575 110.452 203.635 122.821 197.521 137.282C192.63 148.851 187.383 188.548 185.371 206.95L213.47 199.779C210.041 192.811 217.99 156.828 222.393 139.707Z" fill="#65A970"/>
<circle cx="756.5" cy="58.5" r="24.5" fill="#2F889D" fill-opacity="0.5"/>
<circle cx="738" cy="89" r="6" fill="#2F889D" fill-opacity="0.5"/>
<circle cx="720.5" cy="75.5" r="11.5" fill="#2F889D" fill-opacity="0.5"/>
<path d="M257.356 173.734C266.261 146.715 244.791 109.085 232.942 93.6465C241.112 142.974 240.113 155.303 232.783 169.188C226.92 180.295 218.293 219.397 214.712 237.559L243.323 232.821C240.502 225.584 251.503 190.414 257.356 173.734Z" fill="#65A970"/>
<path d="M1412.93 28C1393.62 53.44 1402.79 69.861 1409.79 74.8915C1408.53 105.937 1414.16 155.02 1417.13 175.681L1395.62 153.583C1398.55 135.904 1381.1 128.61 1372 127.173C1372.84 155.631 1388.09 159.153 1395.62 157.356L1421.33 187H1425V175.681L1438.65 149.81L1465.94 127.173C1491.55 122.43 1498.65 100.044 1499 89.4441C1457.54 99.1458 1465.94 123.939 1463.84 123.939C1461.74 123.939 1445.47 142.264 1441.8 142.264C1441.8 138.815 1460.34 104.536 1469.61 87.8271C1491.86 69.2861 1491.13 46.6847 1487.98 37.7017C1465.41 50.6373 1464.89 64.6508 1465.94 79.7424C1466.78 91.8156 1452.64 114.237 1445.47 123.939L1448.62 106.153C1457.44 97.96 1453.69 76.1492 1450.72 66.2678C1431.83 81.7905 1437.95 99.3254 1443.37 106.153L1441.8 133.102L1421.33 172.447C1415.87 169.86 1413.46 106.332 1412.93 74.8915C1427.21 58.9376 1418.88 36.9831 1412.93 28Z" fill="#7ED7C1"/>
<path d="M1341.08 56.3103C1369.74 70.4107 1368.9 89.1979 1364.89 96.829C1379.92 124.025 1396.86 170.435 1403.45 190.241L1412.8 160.848C1402.25 146.356 1414.6 132.017 1422.09 126.659C1434.08 152.481 1422.02 162.46 1414.49 164.221L1404.77 202.241L1401.48 203.886L1396.41 193.766L1372.63 176.742L1338.09 168.719C1313.07 175.945 1296.7 159.108 1291.64 149.787C1333.05 139.899 1336.64 165.828 1338.52 164.888C1340.4 163.948 1363.15 173.049 1366.43 171.405C1364.89 168.32 1332.96 145.971 1317.19 135.183C1288.99 128.567 1279.53 108.029 1278.32 98.5866C1304.29 100.049 1311.04 112.345 1316.86 126.309C1321.51 137.48 1344.19 151.2 1354.94 156.664L1344.17 142.17C1332.61 138.792 1326.2 117.613 1324.43 107.446C1348.27 112.867 1350.65 131.287 1348.86 139.82L1362.33 163.212L1398.25 189.229C1401.97 184.472 1375.69 126.587 1362.08 98.2389C1342.17 90.3649 1339.79 67.0057 1341.08 56.3103Z" fill="#95F3DD"/>
<path d="M1389.09 118.17C1385.44 147.369 1400.57 155.618 1408.6 156.092C1422.17 180.794 1449.81 216.113 1461.93 230.685L1434.14 224.084C1428.2 208.929 1410.66 211.824 1402.63 215.166C1416.69 236.832 1430.68 232.09 1435.91 227.011L1470.64 237.409L1473.61 235.609L1468.29 226.828L1467.16 200.072L1478.57 169.138C1497.05 152.91 1492.26 132.064 1487.56 123.669C1458.61 151.509 1477.05 166.63 1475.36 167.658C1473.66 168.687 1469.12 190.875 1466.15 192.675C1464.53 189.999 1463.4 154.319 1463.04 136.814C1472.31 111.527 1461.09 94.3528 1454.32 88.9265C1442.16 110.019 1448.33 121.148 1456.27 132.342C1462.63 141.297 1461.74 165.617 1460.51 176.658L1454.69 161.316C1457.96 150.64 1444.68 135.554 1437.63 129.345C1429.66 150.644 1442.85 161.248 1450.45 163.888L1461.85 185.566L1463.8 226.119C1458.17 226.786 1426.35 178.684 1411.14 154.549C1415.18 135.178 1398.12 122.225 1389.09 118.17Z" fill="#BEF4E7"/>
<path d="M1323 200C1328 200 1423 146.5 1502 200H1323Z" fill="#2F889D"/>
</svg>
