<svg width="103" height="57" viewBox="0 0 103 57" fill="none" xmlns="http://www.w3.org/2000/svg">
<path d="M17.1875 16.445L14.1075 8.0275C13.9558 7.65417 13.7983 7.21083 13.635 6.6975C13.4717 6.18417 13.3083 5.63 13.145 5.035C12.9933 5.63 12.8358 6.19 12.6725 6.715C12.5092 7.22833 12.3517 7.6775 12.2 8.0625L9.1375 16.445H17.1875ZM25.5 26H21.86C21.4517 26 21.1192 25.9008 20.8625 25.7025C20.6058 25.4925 20.4133 25.2358 20.285 24.9325L18.395 19.77H7.9125L6.0225 24.9325C5.92917 25.2008 5.74833 25.4458 5.48 25.6675C5.21167 25.8892 4.87917 26 4.4825 26H0.8075L10.765 0.694998H15.56L25.5 26ZM43.5333 4.5625H35.9033V26H31.1958V4.5625H23.5658V0.694998H43.5333V4.5625ZM74.4847 0.694998V26H70.3372V9.655C70.3372 9.00167 70.3722 8.29583 70.4422 7.5375L62.7947 21.905C62.433 22.5933 61.8788 22.9375 61.1322 22.9375H60.4672C59.7205 22.9375 59.1663 22.5933 58.8047 21.905L51.0697 7.485C51.1047 7.87 51.1338 8.24917 51.1572 8.6225C51.1805 8.99583 51.1922 9.34 51.1922 9.655V26H47.0447V0.694998H50.5972C50.8072 0.694998 50.988 0.700832 51.1397 0.712499C51.2913 0.724165 51.4255 0.753332 51.5422 0.799999C51.6705 0.846665 51.7813 0.922498 51.8747 1.0275C51.9797 1.1325 52.0788 1.2725 52.1722 1.4475L59.7497 15.5C59.948 15.8733 60.1288 16.2583 60.2922 16.655C60.4672 17.0517 60.6363 17.46 60.7997 17.88C60.963 17.4483 61.1322 17.0342 61.3072 16.6375C61.4822 16.2292 61.6688 15.8383 61.8672 15.465L69.3397 1.4475C69.433 1.2725 69.5322 1.1325 69.6372 1.0275C69.7422 0.922498 69.853 0.846665 69.9697 0.799999C70.098 0.753332 70.238 0.724165 70.3897 0.712499C70.5413 0.700832 70.7222 0.694998 70.9322 0.694998H74.4847ZM93.7006 16.445L90.6206 8.0275C90.4689 7.65417 90.3114 7.21083 90.1481 6.6975C89.9848 6.18417 89.8214 5.63 89.6581 5.035C89.5064 5.63 89.3489 6.19 89.1856 6.715C89.0223 7.22833 88.8648 7.6775 88.7131 8.0625L85.6506 16.445H93.7006ZM102.013 26H98.3731C97.9648 26 97.6323 25.9008 97.3756 25.7025C97.1189 25.4925 96.9264 25.2358 96.7981 24.9325L94.9081 19.77H84.4256L82.5356 24.9325C82.4423 25.2008 82.2614 25.4458 81.9931 25.6675C81.7248 25.8892 81.3923 26 80.9956 26H77.3206L87.2781 0.694998H92.0731L102.013 26ZM17.1875 46.445L14.1075 38.0275C13.9558 37.6542 13.7983 37.2108 13.635 36.6975C13.4717 36.1842 13.3083 35.63 13.145 35.035C12.9933 35.63 12.8358 36.19 12.6725 36.715C12.5092 37.2283 12.3517 37.6775 12.2 38.0625L9.1375 46.445H17.1875ZM25.5 56H21.86C21.4517 56 21.1192 55.9008 20.8625 55.7025C20.6058 55.4925 20.4133 55.2358 20.285 54.9325L18.395 49.77H7.9125L6.0225 54.9325C5.92917 55.2008 5.74833 55.4458 5.48 55.6675C5.21167 55.8892 4.87917 56 4.4825 56H0.8075L10.765 30.695H15.56L25.5 56ZM41.7943 35.2975C41.6543 35.5425 41.5026 35.7233 41.3393 35.84C41.1876 35.945 40.9951 35.9975 40.7618 35.9975C40.5168 35.9975 40.2484 35.91 39.9568 35.735C39.6768 35.5483 39.3384 35.3442 38.9418 35.1225C38.5451 34.9008 38.0784 34.7025 37.5418 34.5275C37.0168 34.3408 36.3926 34.2475 35.6693 34.2475C35.0159 34.2475 34.4443 34.3292 33.9543 34.4925C33.4643 34.6442 33.0501 34.86 32.7118 35.14C32.3851 35.42 32.1401 35.7583 31.9768 36.155C31.8134 36.54 31.7318 36.9658 31.7318 37.4325C31.7318 38.0275 31.8951 38.5233 32.2218 38.92C32.5601 39.3167 33.0034 39.655 33.5518 39.935C34.1001 40.215 34.7243 40.4658 35.4243 40.6875C36.1243 40.9092 36.8418 41.1483 37.5768 41.405C38.3118 41.65 39.0293 41.9417 39.7293 42.28C40.4293 42.6067 41.0534 43.0267 41.6018 43.54C42.1501 44.0417 42.5876 44.66 42.9143 45.395C43.2526 46.13 43.4218 47.0225 43.4218 48.0725C43.4218 49.2158 43.2234 50.2892 42.8268 51.2925C42.4418 52.2842 41.8701 53.1533 41.1118 53.9C40.3651 54.635 39.4493 55.2183 38.3643 55.65C37.2793 56.07 36.0368 56.28 34.6368 56.28C33.8318 56.28 33.0384 56.1983 32.2568 56.035C31.4751 55.8833 30.7226 55.6617 29.9993 55.37C29.2876 55.0783 28.6168 54.7283 27.9868 54.32C27.3568 53.9117 26.7968 53.4567 26.3068 52.955L27.6893 50.6975C27.8059 50.5342 27.9576 50.4 28.1443 50.295C28.3309 50.1783 28.5293 50.12 28.7393 50.12C29.0309 50.12 29.3459 50.2425 29.6843 50.4875C30.0226 50.7208 30.4251 50.9833 30.8918 51.275C31.3584 51.5667 31.9009 51.835 32.5193 52.08C33.1493 52.3133 33.9018 52.43 34.7768 52.43C36.1184 52.43 37.1568 52.115 37.8918 51.485C38.6268 50.8433 38.9943 49.9275 38.9943 48.7375C38.9943 48.0725 38.8251 47.53 38.4868 47.11C38.1601 46.69 37.7226 46.34 37.1743 46.06C36.6259 45.7683 36.0018 45.5233 35.3018 45.325C34.6018 45.1267 33.8901 44.9108 33.1668 44.6775C32.4434 44.4442 31.7318 44.1642 31.0318 43.8375C30.3318 43.5108 29.7076 43.085 29.1593 42.56C28.6109 42.035 28.1676 41.3817 27.8293 40.6C27.5026 39.8067 27.3393 38.8325 27.3393 37.6775C27.3393 36.7558 27.5201 35.8575 27.8818 34.9825C28.2551 34.1075 28.7918 33.3317 29.4918 32.655C30.1918 31.9783 31.0551 31.4358 32.0818 31.0275C33.1084 30.6192 34.2868 30.415 35.6168 30.415C37.1101 30.415 38.4868 30.6483 39.7468 31.115C41.0068 31.5817 42.0801 32.235 42.9668 33.075L41.7943 35.2975ZM65.4032 34.5625H57.7732V56H53.0657V34.5625H45.4357V30.695H65.4032V34.5625ZM79.8236 46.445L76.7436 38.0275C76.592 37.6542 76.4345 37.2108 76.2711 36.6975C76.1078 36.1842 75.9445 35.63 75.7811 35.035C75.6295 35.63 75.472 36.19 75.3086 36.715C75.1453 37.2283 74.9878 37.6775 74.8361 38.0625L71.7736 46.445H79.8236ZM88.1361 56H84.4961C84.0878 56 83.7553 55.9008 83.4986 55.7025C83.242 55.4925 83.0495 55.2358 82.9211 54.9325L81.0311 49.77H70.5486L68.6586 54.9325C68.5653 55.2008 68.3845 55.4458 68.1161 55.6675C67.8478 55.8892 67.5153 56 67.1186 56H63.4436L73.4011 30.695H78.1961L88.1361 56Z" fill="#695032"/>
<path d="M17.1875 16.445V16.745H17.6167L17.4692 16.3419L17.1875 16.445ZM14.1075 8.0275L14.3894 7.92435L14.3854 7.91459L14.1075 8.0275ZM13.635 6.6975L13.9209 6.60654L13.9209 6.60654L13.635 6.6975ZM13.145 5.035L13.4343 4.95558L13.1343 3.86258L12.8543 4.9609L13.145 5.035ZM12.6725 6.715L12.9584 6.80596L12.959 6.80412L12.6725 6.715ZM12.2 8.0625L11.9208 7.95251L11.9182 7.95955L12.2 8.0625ZM9.1375 16.445L8.85572 16.3421L8.7085 16.745H9.1375V16.445ZM25.5 26V26.3H25.9402L25.7792 25.8903L25.5 26ZM20.8625 25.7025L20.6725 25.9348L20.6791 25.9399L20.8625 25.7025ZM20.285 24.9325L20.0033 25.0356L20.0058 25.0426L20.0087 25.0494L20.285 24.9325ZM18.395 19.77L18.6767 19.6669L18.6046 19.47H18.395V19.77ZM7.9125 19.77V19.47H7.70286L7.63079 19.6669L7.9125 19.77ZM6.0225 24.9325L5.74075 24.8294L5.73915 24.8339L6.0225 24.9325ZM5.48 25.6675L5.28894 25.4362L5.48 25.6675ZM0.8075 26L0.528336 25.8901L0.367059 26.3H0.8075V26ZM10.765 0.694998V0.394998H10.5607L10.4858 0.585147L10.765 0.694998ZM15.56 0.694998L15.8392 0.585314L15.7645 0.394998H15.56V0.694998ZM17.4692 16.3419L14.3892 7.92441L13.8258 8.13059L16.9058 16.5481L17.4692 16.3419ZM14.3854 7.91459C14.2375 7.5504 14.0826 7.11475 13.9209 6.60654L13.3491 6.78846C13.5141 7.30692 13.6742 7.75794 13.8296 8.14041L14.3854 7.91459ZM13.9209 6.60654C13.7589 6.09753 13.5967 5.54725 13.4343 4.95558L12.8557 5.11441C13.0199 5.71274 13.1844 6.2708 13.3491 6.78846L13.9209 6.60654ZM12.8543 4.9609C12.7038 5.55143 12.5477 6.10638 12.386 6.62588L12.959 6.80412C13.124 6.27362 13.2829 5.70857 13.4357 5.1091L12.8543 4.9609ZM12.3866 6.62404C12.2248 7.13276 12.0695 7.57533 11.9209 7.95254L12.4791 8.17246C12.6339 7.77967 12.7936 7.32391 12.9584 6.80596L12.3866 6.62404ZM11.9182 7.95955L8.85572 16.3421L9.41928 16.5479L12.4818 8.16545L11.9182 7.95955ZM9.1375 16.745H17.1875V16.145H9.1375V16.745ZM25.5 25.7H21.86V26.3H25.5V25.7ZM21.86 25.7C21.5006 25.7 21.2377 25.6133 21.0459 25.4651L20.6791 25.9399C21.0006 26.1883 21.4027 26.3 21.86 26.3V25.7ZM21.0525 25.4703C20.8332 25.2909 20.6705 25.0737 20.5613 24.8156L20.0087 25.0494C20.1562 25.3979 20.3784 25.6941 20.6725 25.9347L21.0525 25.4703ZM20.5667 24.8294L18.6767 19.6669L18.1133 19.8731L20.0033 25.0356L20.5667 24.8294ZM18.395 19.47H7.9125V20.07H18.395V19.47ZM7.63079 19.6669L5.74079 24.8294L6.30421 25.0356L8.19421 19.8731L7.63079 19.6669ZM5.73915 24.8339C5.66752 25.0399 5.52446 25.2416 5.28894 25.4362L5.67106 25.8988C5.97221 25.65 6.19081 25.3618 6.30585 25.0311L5.73915 24.8339ZM5.28894 25.4362C5.08181 25.6073 4.81973 25.7 4.4825 25.7V26.3C4.9386 26.3 5.34152 26.171 5.67106 25.8988L5.28894 25.4362ZM4.4825 25.7H0.8075V26.3H4.4825V25.7ZM1.08666 26.1099L11.0442 0.804849L10.4858 0.585147L0.528336 25.8901L1.08666 26.1099ZM10.765 0.994998H15.56V0.394998H10.765V0.994998ZM15.2808 0.804682L25.2208 26.1097L25.7792 25.8903L15.8392 0.585314L15.2808 0.804682ZM43.5333 4.5625V4.8625H43.8333V4.5625H43.5333ZM35.9033 4.5625V4.2625H35.6033V4.5625H35.9033ZM35.9033 26V26.3H36.2033V26H35.9033ZM31.1958 26H30.8958V26.3H31.1958V26ZM31.1958 4.5625H31.4958V4.2625H31.1958V4.5625ZM23.5658 4.5625H23.2658V4.8625H23.5658V4.5625ZM23.5658 0.694998V0.394998H23.2658V0.694998H23.5658ZM43.5333 0.694998H43.8333V0.394998H43.5333V0.694998ZM43.5333 4.2625H35.9033V4.8625H43.5333V4.2625ZM35.6033 4.5625V26H36.2033V4.5625H35.6033ZM35.9033 25.7H31.1958V26.3H35.9033V25.7ZM31.4958 26V4.5625H30.8958V26H31.4958ZM31.1958 4.2625H23.5658V4.8625H31.1958V4.2625ZM23.8658 4.5625V0.694998H23.2658V4.5625H23.8658ZM23.5658 0.994998H43.5333V0.394998H23.5658V0.994998ZM43.2333 0.694998V4.5625H43.8333V0.694998H43.2333ZM74.4847 0.694998H74.7847V0.394998H74.4847V0.694998ZM74.4847 26V26.3H74.7847V26H74.4847ZM70.3372 26H70.0372V26.3H70.3372V26ZM70.4422 7.5375L70.7409 7.56507L70.1773 7.39654L70.4422 7.5375ZM62.7947 21.905L62.5298 21.764L62.5291 21.7655L62.7947 21.905ZM58.8047 21.905L59.0702 21.7655L59.069 21.7632L58.8047 21.905ZM51.0697 7.485L51.334 7.34319L50.7709 7.51216L51.0697 7.485ZM51.1572 8.6225L50.8577 8.64121L50.8577 8.64121L51.1572 8.6225ZM51.1922 26V26.3H51.4922V26H51.1922ZM47.0447 26H46.7447V26.3H47.0447V26ZM47.0447 0.694998V0.394998H46.7447V0.694998H47.0447ZM51.1397 0.712499L51.1166 1.01162L51.1166 1.01162L51.1397 0.712499ZM51.5422 0.799999L51.4307 1.07868L51.4396 1.08194L51.5422 0.799999ZM51.8747 1.0275L51.6504 1.22681L51.6563 1.2334L51.6625 1.23963L51.8747 1.0275ZM52.1722 1.4475L51.9074 1.58868L51.9081 1.58988L52.1722 1.4475ZM59.7497 15.5L60.0146 15.3593L60.0137 15.3576L59.7497 15.5ZM60.2922 16.655L60.0147 16.7693L60.0177 16.7761L60.2922 16.655ZM60.7997 17.88L60.52 17.9887L60.8035 18.7176L61.0802 17.9862L60.7997 17.88ZM61.3072 16.6375L61.5816 16.7586L61.5829 16.7557L61.3072 16.6375ZM61.8672 15.465L61.6024 15.3239L61.6022 15.3243L61.8672 15.465ZM69.3397 1.4475L69.0749 1.30632L69.0749 1.30637L69.3397 1.4475ZM69.9697 0.799999L69.8671 0.517919L69.8582 0.521456L69.9697 0.799999ZM70.3897 0.712499L70.4127 1.01162L70.4127 1.01162L70.3897 0.712499ZM74.1847 0.694998V26H74.7847V0.694998H74.1847ZM74.4847 25.7H70.3372V26.3H74.4847V25.7ZM70.6372 26V9.655H70.0372V26H70.6372ZM70.6372 9.655C70.6372 9.01223 70.6716 8.3157 70.7409 7.56507L70.1434 7.50992C70.0727 8.27597 70.0372 8.9911 70.0372 9.655H70.6372ZM70.1773 7.39654L62.5298 21.764L63.0595 22.046L70.707 7.67846L70.1773 7.39654ZM62.5291 21.7655C62.3683 22.0714 62.1732 22.2856 61.9495 22.4245C61.7265 22.563 61.4578 22.6375 61.1322 22.6375V23.2375C61.5532 23.2375 61.9349 23.1399 62.2661 22.9342C62.5966 22.729 62.8593 22.4269 63.0602 22.0445L62.5291 21.7655ZM61.1322 22.6375H60.4672V23.2375H61.1322V22.6375ZM60.4672 22.6375C60.1415 22.6375 59.8728 22.563 59.6498 22.4245C59.4261 22.2856 59.231 22.0714 59.0702 21.7655L58.5391 22.0445C58.74 22.4269 59.0027 22.729 59.3332 22.9342C59.6644 23.1399 60.0461 23.2375 60.4672 23.2375V22.6375ZM59.069 21.7632L51.334 7.34319L50.8053 7.62681L58.5403 22.0468L59.069 21.7632ZM50.7709 7.51216C50.8056 7.89444 50.8346 8.27079 50.8577 8.64121L51.4566 8.60379C51.4331 8.22754 51.4037 7.84556 51.3684 7.45784L50.7709 7.51216ZM50.8577 8.64121C50.8807 9.00943 50.8922 9.34727 50.8922 9.655H51.4922C51.4922 9.33273 51.4802 8.98223 51.4566 8.60379L50.8577 8.64121ZM50.8922 9.655V26H51.4922V9.655H50.8922ZM51.1922 25.7H47.0447V26.3H51.1922V25.7ZM47.3447 26V0.694998H46.7447V26H47.3447ZM47.0447 0.994998H50.5972V0.394998H47.0447V0.994998ZM50.5972 0.994998C50.8021 0.994998 50.9749 1.00071 51.1166 1.01162L51.1627 0.413383C51.0011 0.400953 50.8122 0.394998 50.5972 0.394998V0.994998ZM51.1166 1.01162C51.2441 1.02142 51.3475 1.04526 51.4307 1.07854L51.6536 0.521457C51.5034 0.4614 51.3385 0.426908 51.1627 0.413383L51.1166 1.01162ZM51.4396 1.08194C51.5198 1.11108 51.5892 1.15791 51.6504 1.22681L52.0989 0.828191C51.9734 0.687088 51.8212 0.582245 51.6447 0.518061L51.4396 1.08194ZM51.6625 1.23963C51.7409 1.31803 51.8237 1.43161 51.9074 1.58867L52.4369 1.30632C52.334 1.11338 52.2184 0.946969 52.0868 0.815366L51.6625 1.23963ZM51.9081 1.58988L59.4856 15.6424L60.0137 15.3576L52.4362 1.30511L51.9081 1.58988ZM59.4847 15.6407C59.6784 16.0053 59.8551 16.3815 60.0147 16.7692L60.5696 16.5408C60.4026 16.1352 60.2176 15.7413 60.0146 15.3593L59.4847 15.6407ZM60.0177 16.7761C60.1908 17.1685 60.3583 17.5727 60.52 17.9887L61.0793 17.7713C60.9144 17.3473 60.7435 16.9348 60.5666 16.5339L60.0177 16.7761ZM61.0802 17.9862C61.2418 17.5592 61.4089 17.15 61.5816 16.7586L61.0327 16.5164C60.8554 16.9183 60.6842 17.3375 60.5191 17.7738L61.0802 17.9862ZM61.5829 16.7557C61.7548 16.3546 61.9379 15.9713 62.1321 15.6057L61.6022 15.3243C61.3998 15.7053 61.2095 16.1037 61.0314 16.5193L61.5829 16.7557ZM62.1319 15.6061L69.6044 1.58862L69.0749 1.30637L61.6024 15.3239L62.1319 15.6061ZM69.6044 1.58867C69.6881 1.43161 69.7709 1.31803 69.8493 1.23963L69.425 0.815367C69.2934 0.94697 69.1778 1.11338 69.0749 1.30632L69.6044 1.58867ZM69.8493 1.23963C69.9307 1.15822 70.0083 1.10763 70.0811 1.07854L69.8582 0.521456C69.6976 0.585695 69.5536 0.68678 69.425 0.815367L69.8493 1.23963ZM70.0722 1.08194C70.1722 1.04557 70.2851 1.02143 70.4127 1.01162L70.3666 0.413383C70.1909 0.426903 70.0238 0.461094 69.8671 0.518061L70.0722 1.08194ZM70.4127 1.01162C70.5544 1.00071 70.7272 0.994998 70.9322 0.994998V0.394998C70.7171 0.394998 70.5282 0.400953 70.3666 0.413383L70.4127 1.01162ZM70.9322 0.994998H74.4847V0.394998H70.9322V0.994998ZM93.7006 16.445V16.745H94.1298L93.9823 16.3419L93.7006 16.445ZM90.6206 8.0275L90.9025 7.92435L90.8985 7.91459L90.6206 8.0275ZM90.1481 6.6975L90.434 6.60654L90.434 6.60654L90.1481 6.6975ZM89.6581 5.035L89.9474 4.95558L89.6473 3.86258L89.3674 4.9609L89.6581 5.035ZM89.1856 6.715L89.4715 6.80596L89.472 6.80412L89.1856 6.715ZM88.7131 8.0625L88.4339 7.95251L88.4313 7.95955L88.7131 8.0625ZM85.6506 16.445L85.3688 16.3421L85.2216 16.745H85.6506V16.445ZM102.013 26V26.3H102.453L102.292 25.8903L102.013 26ZM97.3756 25.7025L97.1855 25.9348L97.1922 25.9399L97.3756 25.7025ZM96.7981 24.9325L96.5164 25.0356L96.5189 25.0426L96.5218 25.0494L96.7981 24.9325ZM94.9081 19.77L95.1898 19.6669L95.1177 19.47H94.9081V19.77ZM84.4256 19.77V19.47H84.2159L84.1439 19.6669L84.4256 19.77ZM82.5356 24.9325L82.2538 24.8294L82.2522 24.8339L82.5356 24.9325ZM81.9931 25.6675L81.802 25.4362L81.9931 25.6675ZM77.3206 26L77.0414 25.8901L76.8801 26.3H77.3206V26ZM87.2781 0.694998V0.394998H87.0737L86.9989 0.585147L87.2781 0.694998ZM92.0731 0.694998L92.3523 0.585314L92.2776 0.394998H92.0731V0.694998ZM93.9823 16.3419L90.9023 7.92441L90.3389 8.13059L93.4189 16.5481L93.9823 16.3419ZM90.8985 7.91459C90.7506 7.5504 90.5957 7.11475 90.434 6.60654L89.8622 6.78846C90.0272 7.30692 90.1873 7.75794 90.3426 8.14041L90.8985 7.91459ZM90.434 6.60654C90.272 6.09753 90.1098 5.54725 89.9474 4.95558L89.3688 5.11441C89.533 5.71274 89.6975 6.2708 89.8622 6.78846L90.434 6.60654ZM89.3674 4.9609C89.2169 5.55143 89.0607 6.10638 88.8991 6.62588L89.472 6.80412C89.6371 6.27362 89.796 5.70857 89.9488 5.1091L89.3674 4.9609ZM88.8997 6.62404C88.7378 7.13276 88.5826 7.57533 88.434 7.95254L88.9922 8.17246C89.1469 7.77967 89.3067 7.32391 89.4715 6.80596L88.8997 6.62404ZM88.4313 7.95955L85.3688 16.3421L85.9324 16.5479L88.9949 8.16545L88.4313 7.95955ZM85.6506 16.745H93.7006V16.145H85.6506V16.745ZM102.013 25.7H98.3731V26.3H102.013V25.7ZM98.3731 25.7C98.0137 25.7 97.7508 25.6133 97.559 25.4651L97.1922 25.9399C97.5137 26.1883 97.9158 26.3 98.3731 26.3V25.7ZM97.5656 25.4703C97.3463 25.2909 97.1836 25.0737 97.0744 24.8156L96.5218 25.0494C96.6692 25.3979 96.8915 25.6941 97.1856 25.9347L97.5656 25.4703ZM97.0798 24.8294L95.1898 19.6669L94.6264 19.8731L96.5164 25.0356L97.0798 24.8294ZM94.9081 19.47H84.4256V20.07H94.9081V19.47ZM84.1439 19.6669L82.2539 24.8294L82.8173 25.0356L84.7073 19.8731L84.1439 19.6669ZM82.2522 24.8339C82.1806 25.0399 82.0375 25.2416 81.802 25.4362L82.1841 25.8988C82.4853 25.65 82.7039 25.3618 82.8189 25.0311L82.2522 24.8339ZM81.802 25.4362C81.5949 25.6073 81.3328 25.7 80.9956 25.7V26.3C81.4517 26.3 81.8546 26.171 82.1841 25.8988L81.802 25.4362ZM80.9956 25.7H77.3206V26.3H80.9956V25.7ZM77.5997 26.1099L87.5572 0.804849L86.9989 0.585147L77.0414 25.8901L77.5997 26.1099ZM87.2781 0.994998H92.0731V0.394998H87.2781V0.994998ZM91.7939 0.804682L101.734 26.1097L102.292 25.8903L92.3523 0.585314L91.7939 0.804682ZM17.1875 46.445V46.745H17.6167L17.4692 46.3419L17.1875 46.445ZM14.1075 38.0275L14.3894 37.9243L14.3854 37.9146L14.1075 38.0275ZM13.635 36.6975L13.9209 36.6065L13.9209 36.6065L13.635 36.6975ZM13.145 35.035L13.4343 34.9556L13.1343 33.8626L12.8543 34.9609L13.145 35.035ZM12.6725 36.715L12.9584 36.806L12.959 36.8041L12.6725 36.715ZM12.2 38.0625L11.9208 37.9525L11.9182 37.9596L12.2 38.0625ZM9.1375 46.445L8.85572 46.3421L8.7085 46.745H9.1375V46.445ZM25.5 56V56.3H25.9402L25.7792 55.8903L25.5 56ZM20.8625 55.7025L20.6725 55.9348L20.6791 55.9399L20.8625 55.7025ZM20.285 54.9325L20.0033 55.0356L20.0058 55.0426L20.0087 55.0494L20.285 54.9325ZM18.395 49.77L18.6767 49.6669L18.6046 49.47H18.395V49.77ZM7.9125 49.77V49.47H7.70286L7.63079 49.6669L7.9125 49.77ZM6.0225 54.9325L5.74075 54.8294L5.73915 54.8339L6.0225 54.9325ZM5.48 55.6675L5.28894 55.4362L5.48 55.6675ZM0.8075 56L0.528336 55.8901L0.367059 56.3H0.8075V56ZM10.765 30.695V30.395H10.5607L10.4858 30.5851L10.765 30.695ZM15.56 30.695L15.8392 30.5853L15.7645 30.395H15.56V30.695ZM17.4692 46.3419L14.3892 37.9244L13.8258 38.1306L16.9058 46.5481L17.4692 46.3419ZM14.3854 37.9146C14.2375 37.5504 14.0826 37.1147 13.9209 36.6065L13.3491 36.7885C13.5141 37.3069 13.6742 37.7579 13.8296 38.1404L14.3854 37.9146ZM13.9209 36.6065C13.7589 36.0975 13.5967 35.5473 13.4343 34.9556L12.8557 35.1144C13.0199 35.7127 13.1844 36.2708 13.3491 36.7885L13.9209 36.6065ZM12.8543 34.9609C12.7038 35.5514 12.5477 36.1064 12.386 36.6259L12.959 36.8041C13.124 36.2736 13.2829 35.7086 13.4357 35.1091L12.8543 34.9609ZM12.3866 36.624C12.2248 37.1328 12.0695 37.5753 11.9209 37.9525L12.4791 38.1725C12.6339 37.7797 12.7936 37.3239 12.9584 36.806L12.3866 36.624ZM11.9182 37.9596L8.85572 46.3421L9.41928 46.5479L12.4818 38.1654L11.9182 37.9596ZM9.1375 46.745H17.1875V46.145H9.1375V46.745ZM25.5 55.7H21.86V56.3H25.5V55.7ZM21.86 55.7C21.5006 55.7 21.2377 55.6133 21.0459 55.4651L20.6791 55.9399C21.0006 56.1883 21.4027 56.3 21.86 56.3V55.7ZM21.0525 55.4703C20.8332 55.2909 20.6705 55.0737 20.5613 54.8156L20.0087 55.0494C20.1562 55.3979 20.3784 55.6941 20.6725 55.9347L21.0525 55.4703ZM20.5667 54.8294L18.6767 49.6669L18.1133 49.8731L20.0033 55.0356L20.5667 54.8294ZM18.395 49.47H7.9125V50.07H18.395V49.47ZM7.63079 49.6669L5.74079 54.8294L6.30421 55.0356L8.19421 49.8731L7.63079 49.6669ZM5.73915 54.8339C5.66752 55.0399 5.52446 55.2416 5.28894 55.4362L5.67106 55.8988C5.97221 55.65 6.19081 55.3618 6.30585 55.0311L5.73915 54.8339ZM5.28894 55.4362C5.08181 55.6073 4.81973 55.7 4.4825 55.7V56.3C4.9386 56.3 5.34152 56.171 5.67106 55.8988L5.28894 55.4362ZM4.4825 55.7H0.8075V56.3H4.4825V55.7ZM1.08666 56.1099L11.0442 30.8048L10.4858 30.5851L0.528336 55.8901L1.08666 56.1099ZM10.765 30.995H15.56V30.395H10.765V30.995ZM15.2808 30.8047L25.2208 56.1097L25.7792 55.8903L15.8392 30.5853L15.2808 30.8047ZM41.7943 35.2975L42.0549 35.4464L42.0596 35.4375L41.7943 35.2975ZM41.3393 35.84L41.51 36.0867L41.5136 36.0841L41.3393 35.84ZM39.9568 35.735L39.7903 35.9846L39.7963 35.9886L39.8024 35.9922L39.9568 35.735ZM38.9418 35.1225L39.0881 34.8606L39.0881 34.8606L38.9418 35.1225ZM37.5418 34.5275L37.4412 34.8103L37.4488 34.8127L37.5418 34.5275ZM33.9543 34.4925L34.043 34.7792L34.0491 34.7771L33.9543 34.4925ZM32.7118 35.14L32.5205 34.9088L32.5165 34.9122L32.7118 35.14ZM31.9768 36.155L32.2529 36.2722L32.2542 36.2692L31.9768 36.155ZM32.2218 38.92L31.9901 39.1107L31.9935 39.1147L32.2218 38.92ZM33.5518 39.935L33.4153 40.2022L33.4153 40.2022L33.5518 39.935ZM37.5768 41.405L37.4778 41.6883L37.4819 41.6896L37.5768 41.405ZM39.7293 42.28L39.5987 42.5501L39.6024 42.5519L39.7293 42.28ZM41.6018 43.54L41.3967 43.759L41.3993 43.7613L41.6018 43.54ZM42.9143 45.395L42.6401 45.5169L42.6417 45.5204L42.9143 45.395ZM42.8268 51.2925L42.5478 51.1822L42.5471 51.1839L42.8268 51.2925ZM41.1118 53.9L41.3222 54.1138L41.3222 54.1138L41.1118 53.9ZM38.3643 55.65L38.4726 55.9298L38.4752 55.9287L38.3643 55.65ZM32.2568 56.035L32.3181 55.7413L32.3139 55.7405L32.2568 56.035ZM29.9993 55.37L29.8855 55.6476L29.8871 55.6482L29.9993 55.37ZM27.9868 54.32L27.8236 54.5717L27.8236 54.5717L27.9868 54.32ZM26.3068 52.955L26.0509 52.7983L25.9289 52.9975L26.0921 53.1646L26.3068 52.955ZM27.6893 50.6975L27.4451 50.5231L27.439 50.5318L27.4334 50.5408L27.6893 50.6975ZM28.1443 50.295L28.2915 50.5568L28.3033 50.5494L28.1443 50.295ZM29.6843 50.4875L29.5083 50.7305L29.5139 50.7345L29.6843 50.4875ZM30.8918 51.275L31.0508 51.0206L31.0508 51.0206L30.8918 51.275ZM32.5193 52.08L32.4087 52.359L32.4151 52.3613L32.5193 52.08ZM37.8918 51.485L38.087 51.7128L38.0891 51.711L37.8918 51.485ZM38.4868 47.11L38.2499 47.2942L38.2531 47.2982L38.4868 47.11ZM37.1743 46.06L37.0334 46.3249L37.0378 46.3272L37.1743 46.06ZM35.3018 45.325L35.22 45.6136L35.22 45.6136L35.3018 45.325ZM33.1668 44.6775L33.0747 44.963L33.0747 44.963L33.1668 44.6775ZM29.1593 42.56L28.9518 42.7767L28.9518 42.7767L29.1593 42.56ZM27.8293 40.6L27.5518 40.7142L27.5539 40.7192L27.8293 40.6ZM27.8818 34.9825L27.6058 34.8648L27.6045 34.8679L27.8818 34.9825ZM29.4918 32.655L29.2833 32.4393L29.2833 32.4393L29.4918 32.655ZM39.7468 31.115L39.6426 31.3963L39.6426 31.3963L39.7468 31.115ZM42.9668 33.075L43.2321 33.215L43.3383 33.0137L43.1731 32.8572L42.9668 33.075ZM41.5338 35.1487C41.4071 35.3703 41.2817 35.5124 41.1649 35.5959L41.5136 36.0841C41.7235 35.9342 41.9014 35.7147 42.0547 35.4463L41.5338 35.1487ZM41.1685 35.5933C41.0788 35.6554 40.9503 35.6975 40.7618 35.6975V36.2975C41.0399 36.2975 41.2963 36.2346 41.51 36.0867L41.1685 35.5933ZM40.7618 35.6975C40.5883 35.6975 40.3735 35.6352 40.1111 35.4778L39.8024 35.9922C40.1234 36.1848 40.4452 36.2975 40.7618 36.2975V35.6975ZM40.1232 35.4854C39.8348 35.2932 39.4894 35.0849 39.0881 34.8606L38.7954 35.3844C39.1874 35.6035 39.5187 35.8035 39.7903 35.9846L40.1232 35.4854ZM39.0881 34.8606C38.671 34.6275 38.1857 34.4219 37.6348 34.2423L37.4488 34.8127C37.9712 34.9831 38.4192 35.1742 38.7954 35.3844L39.0881 34.8606ZM37.6423 34.2448C37.077 34.0439 36.4172 33.9475 35.6693 33.9475V34.5475C36.368 34.5475 36.9565 34.6378 37.4413 34.8102L37.6423 34.2448ZM35.6693 33.9475C34.9918 33.9475 34.3868 34.0321 33.8594 34.2079L34.0491 34.7771C34.5017 34.6263 35.04 34.5475 35.6693 34.5475V33.9475ZM33.8656 34.2059C33.3443 34.3673 32.8937 34.6 32.5205 34.9089L32.903 35.3711C33.2065 35.12 33.5842 34.9211 34.043 34.7791L33.8656 34.2059ZM32.5165 34.9122C32.154 35.223 31.8808 35.6002 31.6994 36.0408L32.2542 36.2692C32.3994 35.9165 32.6162 35.617 32.907 35.3678L32.5165 34.9122ZM31.7006 36.0378C31.5198 36.464 31.4318 36.9302 31.4318 37.4325H32.0318C32.0318 37.0014 32.107 36.616 32.2529 36.2722L31.7006 36.0378ZM31.4318 37.4325C31.4318 38.0855 31.6124 38.652 31.9902 39.1107L32.4533 38.7293C32.1777 38.3946 32.0318 37.9695 32.0318 37.4325H31.4318ZM31.9935 39.1147C32.3616 39.5462 32.8382 39.9075 33.4153 40.2022L33.6882 39.6678C33.1687 39.4025 32.7586 39.0871 32.45 38.7253L31.9935 39.1147ZM33.4153 40.2022C33.9809 40.491 34.6208 40.7478 35.3337 40.9735L35.5148 40.4015C34.8277 40.1839 34.2193 39.939 33.6882 39.6678L33.4153 40.2022ZM35.3337 40.9735C36.0307 41.1942 36.7455 41.4325 37.4779 41.6882L37.6757 41.1218C36.9381 40.8642 36.2178 40.6241 35.5148 40.4015L35.3337 40.9735ZM37.4819 41.6896C38.2047 41.9305 38.9102 42.2173 39.5987 42.5501L39.8598 42.0099C39.1483 41.666 38.4189 41.3695 37.6716 41.1204L37.4819 41.6896ZM39.6024 42.5519C40.2745 42.8655 40.8722 43.2679 41.3967 43.759L41.8068 43.321C41.2347 42.7854 40.584 42.3478 39.8561 42.0081L39.6024 42.5519ZM41.3993 43.7613C41.9147 44.2329 42.3288 44.8164 42.6401 45.5168L43.1884 45.2732C42.8464 44.5036 42.3855 43.8504 41.8043 43.3187L41.3993 43.7613ZM42.6417 45.5204C42.9574 46.2062 43.1218 47.0534 43.1218 48.0725H43.7218C43.7218 46.9916 43.5478 46.0538 43.1868 45.2696L42.6417 45.5204ZM43.1218 48.0725C43.1218 49.1804 42.9297 50.216 42.5478 51.1822L43.1057 51.4028C43.5171 50.3623 43.7218 49.2513 43.7218 48.0725H43.1218ZM42.5471 51.1839C42.1775 52.136 41.6294 52.9693 40.9013 53.6862L41.3222 54.1138C42.1108 53.3373 42.7061 52.4323 43.1064 51.4011L42.5471 51.1839ZM40.9013 53.6862C40.1863 54.3901 39.3054 54.9527 38.2534 55.3713L38.4752 55.9287C39.5931 55.484 40.5439 54.8799 41.3222 54.1138L40.9013 53.6862ZM38.256 55.3702C37.2117 55.7744 36.0071 55.98 34.6368 55.98V56.58C36.0665 56.58 37.3468 56.3656 38.4726 55.9298L38.256 55.3702ZM34.6368 55.98C33.8522 55.98 33.0794 55.9004 32.3181 55.7413L32.1954 56.3287C32.9974 56.4962 33.8113 56.58 34.6368 56.58V55.98ZM32.3139 55.7405C31.5507 55.5924 30.8166 55.3761 30.1114 55.0918L29.8871 55.6482C30.6286 55.9472 31.3995 56.1743 32.1996 56.3295L32.3139 55.7405ZM30.113 55.0924C29.4182 54.8076 28.7639 54.4662 28.1499 54.0683L27.8236 54.5717C28.4696 54.9905 29.157 55.349 29.8855 55.6476L30.113 55.0924ZM28.1499 54.0683C27.5373 53.6712 26.9948 53.2301 26.5214 52.7454L26.0921 53.1646C26.5987 53.6833 27.1762 54.1522 27.8236 54.5717L28.1499 54.0683ZM26.5626 53.1117L27.9451 50.8542L27.4334 50.5408L26.0509 52.7983L26.5626 53.1117ZM27.9334 50.8719C28.0228 50.7467 28.1404 50.6414 28.2913 50.5565L27.9972 50.0335C27.7748 50.1586 27.5891 50.3216 27.4451 50.5231L27.9334 50.8719ZM28.3033 50.5494C28.4447 50.461 28.5883 50.42 28.7393 50.42V49.82C28.4703 49.82 28.2172 49.8956 27.9853 50.0406L28.3033 50.5494ZM28.7393 50.42C28.9457 50.42 29.1998 50.5071 29.5083 50.7305L29.8602 50.2445C29.492 49.9779 29.1161 49.82 28.7393 49.82V50.42ZM29.5139 50.7345C29.857 50.971 30.2635 51.2361 30.7328 51.5294L31.0508 51.0206C30.5867 50.7306 30.1882 50.4706 29.8546 50.2405L29.5139 50.7345ZM30.7328 51.5294C31.2176 51.8324 31.7769 52.1085 32.4087 52.3589L32.6298 51.8011C32.0249 51.5614 31.4992 51.3009 31.0508 51.0206L30.7328 51.5294ZM32.4151 52.3613C33.0868 52.6101 33.8764 52.73 34.7768 52.73V52.13C33.9271 52.13 33.2117 52.0166 32.6235 51.7987L32.4151 52.3613ZM34.7768 52.73C36.1625 52.73 37.2798 52.4046 38.087 51.7128L37.6965 51.2572C37.0337 51.8254 36.0743 52.13 34.7768 52.13V52.73ZM38.0891 51.711C38.9034 51 39.2943 49.9934 39.2943 48.7375H38.6943C38.6943 49.8616 38.3501 50.6866 37.6945 51.259L38.0891 51.711ZM39.2943 48.7375C39.2943 48.0204 39.1109 47.4066 38.7204 46.9218L38.2531 47.2982C38.5392 47.6534 38.6943 48.1246 38.6943 48.7375H39.2943ZM38.7236 46.9258C38.366 46.4661 37.892 46.0897 37.3107 45.7928L37.0378 46.3272C37.5532 46.5903 37.9542 46.9139 38.25 47.2942L38.7236 46.9258ZM37.3151 45.7951C36.7451 45.4919 36.1006 45.2395 35.3835 45.0364L35.22 45.6136C35.9029 45.8071 36.5067 46.0447 37.0334 46.3249L37.3151 45.7951ZM35.3835 45.0364C34.6871 44.8391 33.9789 44.6243 33.2589 44.392L33.0747 44.963C33.8013 45.1974 34.5164 45.4143 35.22 45.6136L35.3835 45.0364ZM33.2589 44.392C32.5476 44.1625 31.8475 43.8871 31.1586 43.5656L30.9049 44.1094C31.616 44.4412 32.3393 44.7258 33.0747 44.963L33.2589 44.392ZM31.1586 43.5656C30.4878 43.2526 29.891 42.8452 29.3667 42.3433L28.9518 42.7767C29.5242 43.3248 30.1757 43.7691 30.9049 44.1094L31.1586 43.5656ZM29.3667 42.3433C28.8506 41.8492 28.429 41.2303 28.1046 40.4808L27.5539 40.7192C27.9062 41.5331 28.3712 42.2208 28.9518 42.7767L29.3667 42.3433ZM28.1067 40.4858C27.7991 39.7389 27.6393 38.8061 27.6393 37.6775H27.0393C27.0393 38.8589 27.2061 39.8745 27.5519 40.7142L28.1067 40.4858ZM27.6393 37.6775C27.6393 36.7962 27.8119 35.9368 28.159 35.0971L27.6045 34.8679C27.2282 35.7782 27.0393 36.7154 27.0393 37.6775H27.6393ZM28.1577 35.1002C28.5149 34.2629 29.0284 33.5202 29.7003 32.8707L29.2833 32.4393C28.5552 33.1431 27.9952 33.9521 27.6058 34.8648L28.1577 35.1002ZM29.7003 32.8707C30.3686 32.2246 31.1974 31.7021 32.1926 31.3063L31.9709 30.7487C30.9128 31.1696 30.0149 31.732 29.2833 32.4393L29.7003 32.8707ZM32.1926 31.3063C33.1776 30.9145 34.3172 30.715 35.6168 30.715V30.115C34.2563 30.115 33.0392 30.3238 31.9709 30.7487L32.1926 31.3063ZM35.6168 30.715C37.0785 30.715 38.4194 30.9433 39.6426 31.3963L39.851 30.8337C38.5541 30.3534 37.1417 30.115 35.6168 30.115V30.715ZM39.6426 31.3963C40.8684 31.8503 41.906 32.4833 42.7604 33.2928L43.1731 32.8572C42.2542 31.9867 41.1451 31.313 39.851 30.8337L39.6426 31.3963ZM42.7014 32.935L41.5289 35.1575L42.0596 35.4375L43.2321 33.215L42.7014 32.935ZM65.4032 34.5625V34.8625H65.7032V34.5625H65.4032ZM57.7732 34.5625V34.2625H57.4732V34.5625H57.7732ZM57.7732 56V56.3H58.0732V56H57.7732ZM53.0657 56H52.7657V56.3H53.0657V56ZM53.0657 34.5625H53.3657V34.2625H53.0657V34.5625ZM45.4357 34.5625H45.1357V34.8625H45.4357V34.5625ZM45.4357 30.695V30.395H45.1357V30.695H45.4357ZM65.4032 30.695H65.7032V30.395H65.4032V30.695ZM65.4032 34.2625H57.7732V34.8625H65.4032V34.2625ZM57.4732 34.5625V56H58.0732V34.5625H57.4732ZM57.7732 55.7H53.0657V56.3H57.7732V55.7ZM53.3657 56V34.5625H52.7657V56H53.3657ZM53.0657 34.2625H45.4357V34.8625H53.0657V34.2625ZM45.7357 34.5625V30.695H45.1357V34.5625H45.7357ZM45.4357 30.995H65.4032V30.395H45.4357V30.995ZM65.1032 30.695V34.5625H65.7032V30.695H65.1032ZM79.8236 46.445V46.745H80.2529L80.1054 46.3419L79.8236 46.445ZM76.7436 38.0275L77.0255 37.9243L77.0216 37.9146L76.7436 38.0275ZM76.2711 36.6975L76.557 36.6065L76.557 36.6065L76.2711 36.6975ZM75.7811 35.035L76.0704 34.9556L75.7704 33.8626L75.4904 34.9609L75.7811 35.035ZM75.3086 36.715L75.5945 36.806L75.5951 36.8041L75.3086 36.715ZM74.8361 38.0625L74.5569 37.9525L74.5543 37.9596L74.8361 38.0625ZM71.7736 46.445L71.4918 46.3421L71.3446 46.745H71.7736V46.445ZM88.1361 56V56.3H88.5763L88.4154 55.8903L88.1361 56ZM83.4986 55.7025L83.3086 55.9348L83.3152 55.9399L83.4986 55.7025ZM82.9211 54.9325L82.6394 55.0356L82.642 55.0426L82.6448 55.0494L82.9211 54.9325ZM81.0311 49.77L81.3128 49.6669L81.2408 49.47H81.0311V49.77ZM70.5486 49.77V49.47H70.339L70.2669 49.6669L70.5486 49.77ZM68.6586 54.9325L68.3769 54.8294L68.3753 54.8339L68.6586 54.9325ZM68.1161 55.6675L67.9251 55.4362L68.1161 55.6675ZM63.4436 56L63.1645 55.8901L63.0032 56.3H63.4436V56ZM73.4011 30.695V30.395H73.1968L73.122 30.5851L73.4011 30.695ZM78.1961 30.695L78.4754 30.5853L78.4006 30.395H78.1961V30.695ZM80.1054 46.3419L77.0254 37.9244L76.4619 38.1306L79.5419 46.5481L80.1054 46.3419ZM77.0216 37.9146C76.8736 37.5504 76.7187 37.1147 76.557 36.6065L75.9853 36.7885C76.1502 37.3069 76.3103 37.7579 76.4657 38.1404L77.0216 37.9146ZM76.557 36.6065C76.3951 36.0975 76.2328 35.5473 76.0704 34.9556L75.4918 35.1144C75.6561 35.7127 75.8205 36.2708 75.9853 36.7885L76.557 36.6065ZM75.4904 34.9609C75.3399 35.5514 75.1838 36.1064 75.0222 36.6259L75.5951 36.8041C75.7601 36.2736 75.919 35.7086 76.0718 35.1091L75.4904 34.9609ZM75.0228 36.624C74.8609 37.1328 74.7056 37.5753 74.557 37.9525L75.1153 38.1725C75.27 37.7797 75.4297 37.3239 75.5945 36.806L75.0228 36.624ZM74.5543 37.9596L71.4918 46.3421L72.0554 46.5479L75.1179 38.1654L74.5543 37.9596ZM71.7736 46.745H79.8236V46.145H71.7736V46.745ZM88.1361 55.7H84.4961V56.3H88.1361V55.7ZM84.4961 55.7C84.1367 55.7 83.8739 55.6133 83.6821 55.4651L83.3152 55.9399C83.6367 56.1883 84.0389 56.3 84.4961 56.3V55.7ZM83.6886 55.4703C83.4694 55.2909 83.3066 55.0737 83.1974 54.8156L82.6448 55.0494C82.7923 55.3979 83.0146 55.6941 83.3087 55.9347L83.6886 55.4703ZM83.2028 54.8294L81.3128 49.6669L80.7494 49.8731L82.6394 55.0356L83.2028 54.8294ZM81.0311 49.47H70.5486V50.07H81.0311V49.47ZM70.2669 49.6669L68.3769 54.8294L68.9403 55.0356L70.8303 49.8731L70.2669 49.6669ZM68.3753 54.8339C68.3037 55.0399 68.1606 55.2416 67.9251 55.4362L68.3072 55.8988C68.6083 55.65 68.8269 55.3618 68.942 55.0311L68.3753 54.8339ZM67.9251 55.4362C67.7179 55.6073 67.4559 55.7 67.1186 55.7V56.3C67.5747 56.3 67.9777 56.171 68.3072 55.8988L67.9251 55.4362ZM67.1186 55.7H63.4436V56.3H67.1186V55.7ZM63.7228 56.1099L73.6803 30.8048L73.122 30.5851L63.1645 55.8901L63.7228 56.1099ZM73.4011 30.995H78.1961V30.395H73.4011V30.995ZM77.9169 30.8047L87.8569 56.1097L88.4154 55.8903L78.4754 30.5853L77.9169 30.8047Z" fill="#695032"/>
</svg>
